<?xml version="1.0" encoding="UTF-8"?>
<svg width="203px" height="49px" viewBox="0 0 203 49" version="1.1" xmlns="http://www.w3.org/2000/svg" xmlns:xlink="http://www.w3.org/1999/xlink">
    <!-- Generator: Sketch 47.1 (45422) - http://www.bohemiancoding.com/sketch -->
    <title>Group</title>
    <desc>Created with Sketch.</desc>
    <defs></defs>
    <g id="Page-1" stroke="none" stroke-width="1" fill="none" fill-rule="evenodd">
        <g id="Group" transform="translate(2.000000, 0.000000)">
            <path d="M87.824,19.752 C87.8880003,19.3039978 87.9479997,18.780003 88.004,18.18 C88.0600003,17.579997 88.1119998,16.976003 88.16,16.368 C88.2080002,15.759997 88.2559998,15.1640029 88.304,14.58 C88.3520002,13.9959971 88.3999998,13.4880022 88.448,13.056 C88.3679996,13.4880022 88.2960003,13.9839972 88.232,14.544 C88.1679997,15.1040028 88.1040003,15.679997 88.04,16.272 C87.9759997,16.864003 87.9120003,17.4519971 87.848,18.036 C87.7839997,18.6200029 87.7280002,19.1439977 87.68,19.608 C87.4399988,19.4479992 87.32,19.2320014 87.32,18.96 C87.32,18.6399984 87.3279999,18.3720011 87.344,18.156 C87.3600001,17.9399989 87.3839998,17.6880014 87.416,17.4 L87.68,17.16 C87.6639999,17.0799996 87.656,17.0080003 87.656,16.944 L87.656,16.704 C87.656,16.3359982 87.6959996,15.9160024 87.776,15.444 C87.8560004,14.9719976 87.9479995,14.4920024 88.052,14.004 C88.1560005,13.5159976 88.2479996,13.0440023 88.328,12.588 C88.4080004,12.1319977 88.448,11.7360017 88.448,11.4 L88.16,11.328 C88.1279998,11.7120019 88.0800003,12.1479976 88.016,12.636 C87.9519997,13.1240024 87.8840004,13.6279974 87.812,14.148 C87.7399996,14.6680026 87.6720003,15.1839974 87.608,15.696 C87.5759998,15.9680014 87.5440002,16.2239988 87.512,16.464 C87.5440002,16.0159978 87.5839998,15.5360026 87.632,15.024 C87.7120004,14.2879963 87.7959996,13.5560036 87.884,12.828 C87.9720004,12.0999964 88.0559996,11.3840035 88.136,10.68 C88.2160004,9.97599648 88.2959996,9.32800296 88.376,8.736 C88.376,8.4959988 88.4359994,8.2360014 88.556,7.956 C88.6760006,7.6759986 88.7599998,7.38400152 88.808,7.08 C88.9040005,7.11200016 88.9839997,7.128 89.048,7.128 L89.216,7.128 C89.3760008,7.128 89.4799998,7.16399964 89.528,7.236 C89.5760002,7.30800036 89.6,7.40799936 89.6,7.536 L89.6,7.656 L89.816,7.728 C89.9440006,7.4879988 90.0959991,7.29600072 90.272,7.152 C90.4480009,7.00799928 90.6239991,6.936 90.8,6.936 C91.1840019,6.936 91.376,7.34399592 91.376,8.16 C91.376,8.59200216 91.3320004,9.05199756 91.244,9.54 C91.1559996,10.0280024 91.112,10.5039977 91.112,10.968 L91.112,11.28 C91.112,11.7920026 91.0560006,12.347997 90.944,12.948 C90.8319994,13.548003 90.7080007,14.1559969 90.572,14.772 C90.4359993,15.3880031 90.3120006,15.9839971 90.2,16.56 C90.0879994,17.1360029 90.032,17.6639976 90.032,18.144 C90.032,18.2560006 90.0399999,18.3759994 90.056,18.504 C90.0720001,18.6320006 90.08,18.7519994 90.08,18.864 C90.08,19.1040012 90.0360004,19.2519997 89.948,19.308 C89.8599996,19.3640003 89.7520006,19.392 89.624,19.392 C89.624,19.183999 89.6160001,18.9280015 89.6,18.624 C89.5839999,18.3199985 89.576,18.0480012 89.576,17.808 C89.5439998,17.9840009 89.528,18.2239985 89.528,18.528 C89.528,18.8320015 89.5120002,19.1199986 89.48,19.392 L89.12,19.392 L89.12,19.68 C88.9759993,19.9360013 88.7840012,20.064 88.544,20.064 C88.4319994,20.064 88.3040007,20.0320003 88.16,19.968 C88.0159993,19.9039997 87.9040004,19.8320004 87.824,19.752 Z M92.768,1.32 C92.4959986,1.4800008 92.2480011,1.68799872 92.024,1.944 C91.7999989,2.20000128 91.5680012,2.4479988 91.328,2.688 C91.4720007,2.59199952 91.5999994,2.48800056 91.712,2.376 C91.8240006,2.26399944 91.9399994,2.15200056 92.06,2.04 C92.1800006,1.92799944 92.3079993,1.81600056 92.444,1.704 C92.5800007,1.59199944 92.7359991,1.48800048 92.912,1.392 C92.9600002,1.45600032 93.0039998,1.51199976 93.044,1.56 C93.0840002,1.60800024 93.104,1.65599976 93.104,1.704 L92.552,2.256 C92.552,2.22399984 92.5240003,2.19200016 92.468,2.16 C92.4119997,2.12799984 92.3680002,2.112 92.336,2.112 C92.2879998,2.2720008 92.2080006,2.39999952 92.096,2.496 C91.9839994,2.59200048 91.8720006,2.6799996 91.76,2.76 C91.6479994,2.8400004 91.5360006,2.92799952 91.424,3.024 C91.3119994,3.12000048 91.2320002,3.2479992 91.184,3.408 L91.184,3.456 C91.184,3.47200008 91.2079998,3.48 91.256,3.48 L92.456,2.352 L92,2.808 C91.7759989,3.03200112 91.5400012,3.25999884 91.292,3.492 C91.0439988,3.72400116 90.8120011,3.92799912 90.596,4.104 C90.3799989,4.28000088 90.2480002,4.368 90.2,4.368 L90.176,4.344 C90.0639994,4.31199984 89.9480006,4.296 89.828,4.296 C89.7079994,4.296 89.5840006,4.28800008 89.456,4.272 C89.456,4.14399936 89.4360002,4.00800072 89.396,3.864 C89.3559998,3.71999928 89.336,3.6080004 89.336,3.528 C89.336,3.4479996 89.3759996,3.408 89.456,3.408 C89.456,3.35999976 89.4280003,3.28400052 89.372,3.18 C89.3159997,3.07599948 89.2560003,2.95600068 89.192,2.82 C89.1279997,2.68399932 89.0680003,2.54000076 89.012,2.388 C88.9559997,2.23599924 88.928,2.0800008 88.928,1.92 C88.928,1.7599992 88.9959993,1.60400076 89.132,1.452 C89.2680007,1.29999924 89.4279991,1.16800056 89.612,1.056 C89.7960009,0.94399944 89.9759991,0.8480004 90.152,0.768 C90.3280009,0.6879996 90.4559996,0.63200016 90.536,0.6 C90.6000003,0.6 90.6240001,0.56400036 90.608,0.492 C90.5919999,0.41999964 90.6159997,0.384 90.68,0.384 L91.112,0.528 C91.0799998,0.6080004 90.9800008,0.73999908 90.812,0.924 C90.6439992,1.10800092 90.5200004,1.2399996 90.44,1.32 C90.5520006,1.2399996 90.6839992,1.1200008 90.836,0.96 C90.9880008,0.7999992 91.1039996,0.6800004 91.184,0.6 C91.2640004,0.63200016 91.3359997,0.66399984 91.4,0.696 C91.4640003,0.72800016 91.5119998,0.744 91.544,0.744 L91.616,0.672 C91.7280006,0.672 91.8519993,0.69599976 91.988,0.744 C92.1240007,0.79200024 92.2479994,0.84799968 92.36,0.912 C92.4720006,0.97600032 92.5679996,1.0479996 92.648,1.128 C92.7280004,1.2080004 92.768,1.27199976 92.768,1.32 Z M87.464,17.04 L87.512,16.512 C87.4959999,16.704001 87.4800001,16.8799992 87.464,17.04 Z M103.952,9 C103.807999,9 103.612001,9.02399976 103.364,9.072 C103.115999,9.12000024 102.868001,9.17599968 102.62,9.24 C102.371999,9.30400032 102.148001,9.36799968 101.948,9.432 C101.747999,9.49600032 101.624,9.54399984 101.576,9.576 C101.992002,9.51199968 102.375998,9.43600044 102.728,9.348 C103.080002,9.25999956 103.463998,9.216 103.88,9.216 C103.8,9.36000072 103.696001,9.4719996 103.568,9.552 C103.439999,9.6320004 103.300001,9.6919998 103.148,9.732 C102.995999,9.7720002 102.832001,9.80399988 102.656,9.828 C102.479999,9.85200012 102.296001,9.88799976 102.104,9.936 L101.936,9.72 C101.631998,9.83200056 101.400001,9.89999988 101.24,9.924 C101.079999,9.94800012 100.912001,9.96 100.736,9.96 C100.543999,9.96 100.348001,9.95600004 100.148,9.948 C99.947999,9.93999996 99.7280012,9.936 99.488,9.936 C99.488,10.0160004 99.4800001,10.0799998 99.464,10.128 C99.8320018,10.128 100.143999,10.124 100.4,10.116 C100.656001,10.108 100.967998,10.0800002 101.336,10.032 C100.983998,10.0960003 100.676001,10.1439998 100.412,10.176 C100.147999,10.2080002 99.8320018,10.224 99.464,10.224 C99.3999997,10.5920018 99.3440002,10.9519982 99.296,11.304 C99.2479998,11.6560018 99.224,11.9999983 99.224,12.336 C99.224,12.528001 99.2319999,12.7519987 99.248,13.008 C99.2640001,13.2640013 99.2839999,13.5239987 99.308,13.788 C99.3320001,14.0520013 99.3519999,14.2999988 99.368,14.532 C99.3840001,14.7640012 99.392,14.9359994 99.392,15.048 L99.392,16.488 C99.4720004,16.8080016 99.7039981,17.0479992 100.088,17.208 C100.472002,17.3680008 101.023996,17.448 101.744,17.448 L102.512,17.448 C102.784001,17.448 102.971999,17.4759997 103.076,17.532 C103.180001,17.5880003 103.232,17.6639995 103.232,17.76 C103.232,17.8400004 103.168001,17.884 103.04,17.892 C102.911999,17.9 102.784001,17.904 102.656,17.904 C102.191998,17.904 101.704003,17.8720003 101.192,17.808 C100.711998,17.7439997 100.240002,17.6720004 99.776,17.592 C100.240002,17.7040006 100.727997,17.8079995 101.24,17.904 C101.768003,17.9840004 102.279998,18.024 102.776,18.024 L102.992,18.024 C103.056,18.024 103.128,18.0160001 103.208,18 C103.208,18.0800004 103.212,18.1519997 103.22,18.216 C103.228,18.2800003 103.248,18.3519996 103.28,18.432 L103.472,18.384 C103.52,18.3679999 103.576,18.356 103.64,18.348 C103.704,18.34 103.752,18.3200002 103.784,18.288 C104.296003,18.3360002 104.552,18.5119985 104.552,18.816 C104.552,18.9920009 104.504,19.1359994 104.408,19.248 C104.312,19.3600006 104.192001,19.4479997 104.048,19.512 C103.903999,19.5760003 103.744001,19.6199999 103.568,19.644 C103.391999,19.6680001 103.224001,19.68 103.064,19.68 C102.503997,19.68 101.956003,19.6440004 101.42,19.572 C100.883997,19.4999996 100.360003,19.4240004 99.848,19.344 C100.296002,19.5040008 100.863997,19.6319995 101.552,19.728 C102.240003,19.8240005 102.935996,19.872 103.64,19.872 C103.463999,19.9840006 103.256001,20.0719997 103.016,20.136 C102.775999,20.2000003 102.528001,20.232 102.272,20.232 L100.544,20.016 C100.319999,19.9839998 100.148001,19.9520002 100.028,19.92 C99.9079994,19.8879998 99.7920006,19.8520002 99.68,19.812 C99.5679994,19.7719998 99.4440007,19.7280002 99.308,19.68 C99.1719993,19.6319998 98.9840012,19.5760003 98.744,19.512 L98.744,19.248 C98.3279979,19.1359994 97.9920013,18.9440014 97.736,18.672 C97.4799987,18.3999986 97.2800007,18.1040016 97.136,17.784 C96.9919993,17.4639984 96.8960002,17.1400016 96.848,16.812 C96.7999998,16.4839984 96.776,16.1920013 96.776,15.936 C96.776,15.6639986 96.78,15.4120012 96.788,15.18 C96.796,14.9479988 96.8,14.7120012 96.8,14.472 C96.8,14.2959991 96.796,14.0720014 96.788,13.8 C96.78,13.5279986 96.7680001,13.2400015 96.752,12.936 C96.7359999,12.6319985 96.724,12.3200016 96.716,12 C96.708,11.6799984 96.704,11.3760014 96.704,11.088 C96.704,10.9119991 96.708,10.7440008 96.716,10.584 C96.724,10.4239992 96.7359999,10.2800006 96.752,10.152 L96.512,10.152 C96.4959999,10.2640006 96.488,10.3919993 96.488,10.536 L96.488,10.968 C96.488,11.4320023 96.4959999,11.8919977 96.512,12.348 C96.5280001,12.8040023 96.54,13.2239981 96.548,13.608 C96.556,13.9920019 96.5679999,14.3239986 96.584,14.604 C96.6000001,14.8840014 96.608,15.0879994 96.608,15.216 L96.608,16.368 C96.5599998,15.9359978 96.5120002,15.320004 96.464,14.52 C96.4159998,13.5919954 96.392,12.5680056 96.392,11.448 L96.392,11.016 C96.392,10.8399991 96.396,10.6720008 96.404,10.512 C96.412,10.3519992 96.4319998,10.2320004 96.464,10.152 L95.648,10.104 C95.4719991,9.99199944 95.2960009,9.90400032 95.12,9.84 C94.9439991,9.77599968 94.7840007,9.744 94.64,9.744 L94.64,9.264 C94.64,9.16799952 94.6519999,9.08400036 94.676,9.012 C94.7000001,8.93999964 94.7759994,8.904 94.904,8.904 C94.9360002,8.904 95.0159994,8.91999984 95.144,8.952 L95.144,8.664 C94.9679991,8.56799952 94.8240006,8.43600084 94.712,8.268 C94.5999994,8.09999916 94.544,7.92800088 94.544,7.752 C94.544,7.33599792 94.839997,7.128 95.432,7.128 C95.6560011,7.128 95.8879988,7.14399984 96.128,7.176 C96.3680012,7.20800016 96.6159987,7.23199992 96.872,7.248 C96.9360003,6.89599824 96.9919998,6.5800014 97.04,6.3 C97.0880002,6.0199986 97.1359998,5.74800132 97.184,5.484 C97.2320002,5.21999868 97.2879997,4.95600132 97.352,4.692 C97.4160003,4.42799868 97.4959995,4.15200144 97.592,3.864 C97.7360007,3.5439984 97.8479996,3.19600188 97.928,2.82 C98.0080004,2.44399812 98.0639998,2.07200184 98.096,1.704 L98.6,1.728 C98.6800004,1.728 98.7479997,1.75199976 98.804,1.8 C98.8600003,1.84800024 98.888,1.95999912 98.888,2.136 C98.888,2.28000072 98.8640002,2.4719988 98.816,2.712 L99.104,2.784 C99.2320006,2.35199784 99.3879991,2.00000136 99.572,1.728 C99.7560009,1.45599864 99.9359991,1.32 100.112,1.32 C100.384001,1.32 100.552,1.66399656 100.616,2.352 L100.616,2.784 C100.616,3.20000208 100.588,3.5879982 100.532,3.948 C100.476,4.3080018 100.408,4.66399824 100.328,5.016 C100.248,5.36800176 100.168,5.72799816 100.088,6.096 C100.008,6.46400184 99.9360003,6.86399784 99.872,7.296 C100.224002,7.34400024 100.567998,7.368 100.904,7.368 C101.064001,7.368 101.223999,7.36400004 101.384,7.356 C101.544001,7.34799996 101.703999,7.344 101.864,7.344 C102.024001,7.344 102.191999,7.28000064 102.368,7.152 C102.544001,7.02399936 102.703999,6.96 102.848,6.96 C102.976001,6.96 103.072,6.9999996 103.136,7.08 C103.2,7.1600004 103.232,7.24799952 103.232,7.344 C102.943999,7.4240004 102.660001,7.50799956 102.38,7.596 C102.099999,7.68400044 101.832001,7.7679996 101.576,7.848 C101.832001,7.81599984 102.103999,7.75600044 102.392,7.668 C102.680001,7.57999956 102.983998,7.4960004 103.304,7.416 C103.304,7.4960004 103.308,7.56799968 103.316,7.632 C103.324,7.69600032 103.344,7.7679996 103.376,7.848 C103.408,7.848 103.448,7.84000008 103.496,7.824 C103.592,7.79199984 103.648,7.776 103.664,7.776 C103.824001,7.8560004 103.928,7.9559994 103.976,8.076 C104.024,8.1960006 104.048,8.32799928 104.048,8.472 C104.048,8.58400056 104.032,8.68399956 104,8.772 C103.968,8.86000044 103.952,8.93599968 103.952,9 Z M97.592,17.856 C97.3679989,17.4239978 97.2480001,17.0000021 97.232,16.584 C97.2159999,16.1679979 97.1920002,15.7760018 97.16,15.408 L96.944,11.76 L96.872,12.192 C96.872,13.2640054 96.9079996,14.2359956 96.98,15.108 C97.0520004,15.9800044 97.1599993,16.6559976 97.304,17.136 C97.304,17.2800007 97.3,17.3759998 97.292,17.424 C97.284,17.4720002 97.28,17.5119998 97.28,17.544 C97.28,17.5760002 97.2999998,17.6159998 97.34,17.664 C97.3800002,17.7120002 97.4639994,17.7759996 97.592,17.856 Z M98.96,16.56 C98.9279998,16.4319994 98.912,16.2960007 98.912,16.152 L98.912,14.976 C98.8959999,15.1360008 98.8800001,15.2919992 98.864,15.444 C98.8479999,15.5960008 98.84,15.7519992 98.84,15.912 C98.84,16.3280021 98.8639998,16.6479989 98.912,16.872 C98.9600002,17.064001 99.0559993,17.2239994 99.2,17.352 C99.1199996,17.2559995 99.0640002,17.1520006 99.032,17.04 C99.0159999,16.9119994 98.9920002,16.752001 98.96,16.56 Z M99.248,17.376 C99.2319999,17.3599999 99.2160001,17.352 99.2,17.352 C99.2160001,17.352 99.2319999,17.3599999 99.248,17.376 Z M109.16,3.576 C109.544002,3.576 109.899998,3.65199924 110.228,3.804 C110.556002,3.95600076 110.835999,4.16399868 111.068,4.428 C111.300001,4.69200132 111.479999,4.99199832 111.608,5.328 C111.736001,5.66400168 111.8,6.02399808 111.8,6.408 C111.8,7.33600464 111.560002,8.16799632 111.08,8.904 C110.984,9.04800072 110.824001,9.30399816 110.6,9.672 C110.375999,10.0400018 110.132001,10.419998 109.868,10.812 C109.603999,11.204002 109.348001,11.5519985 109.1,11.856 C108.851999,12.1600015 108.656001,12.312 108.512,12.312 L108.224,12.168 C108.576002,11.6399974 108.935998,11.1200026 109.304,10.608 C109.656002,10.1119975 110.023998,9.6240024 110.408,9.144 C110.007998,9.60800232 109.632002,10.0879975 109.28,10.584 C108.927998,11.0960026 108.544002,11.5999975 108.128,12.096 L107.816,11.88 L107.672,12.072 C107.608,12.1040002 107.544,12.12 107.48,12.12 C107.255999,12.12 107.064001,12.0440008 106.904,11.892 C106.743999,11.7399992 106.64,11.5520011 106.592,11.328 C107.104003,10.8159974 107.563998,10.2800028 107.972,9.72 C108.380002,9.1599972 108.727999,8.54400336 109.016,7.872 C108.679998,8.48000304 108.312002,9.0639972 107.912,9.624 C107.511998,10.1840028 107.048003,10.6879978 106.52,11.136 C106.488,11.0079994 106.472,10.9120003 106.472,10.848 C106.472,10.7679996 106.508,10.6680006 106.58,10.548 C106.652,10.4279994 106.739999,10.3040006 106.844,10.176 C106.948001,10.0479994 107.048,9.92800056 107.144,9.816 C107.24,9.70399944 107.312,9.6080004 107.36,9.528 L107.6,9.672 C107.696,9.41599872 107.819999,9.1680012 107.972,8.928 C108.124001,8.6879988 108.279999,8.44400124 108.44,8.196 C108.600001,7.94799876 108.735999,7.69600128 108.848,7.44 C108.960001,7.18399872 109.016,6.92000136 109.016,6.648 C109.016,6.66400008 109,6.672 108.968,6.672 C108.952,6.672 108.928,6.65600016 108.896,6.624 C108.767999,7.16800272 108.568001,7.67199768 108.296,8.136 C108.023999,8.60000232 107.728002,9.04799784 107.408,9.48 C107.536001,9.28799904 107.683999,9.06000132 107.852,8.796 C108.020001,8.53199868 108.175999,8.25600144 108.32,7.968 C108.464001,7.67999856 108.584,7.3960014 108.68,7.116 C108.776,6.8359986 108.824,6.5760012 108.824,6.336 C108.728,6.30399984 108.64,6.288 108.56,6.288 L108.392,6.312 C108.376,6.19999944 108.352,6.09200052 108.32,5.988 C108.288,5.88399948 108.272,5.77600056 108.272,5.664 C108.272,5.5839996 108.323999,5.5240002 108.428,5.484 C108.532001,5.4439998 108.608,5.424 108.656,5.424 L108.632,5.184 C108.423999,5.1039996 108.236001,4.98800076 108.068,4.836 C107.899999,4.68399924 107.816,4.4880012 107.816,4.248 C107.816,4.10399928 107.864,3.98800044 107.96,3.9 C108.056,3.81199956 108.175999,3.74400024 108.32,3.696 C108.464001,3.64799976 108.611999,3.61600008 108.764,3.6 C108.916001,3.58399992 109.047999,3.576 109.16,3.576 Z M109.016,6.504 C108.984,6.45599976 108.944,6.41600016 108.896,6.384 C108.912,6.41600016 108.928,6.43599996 108.944,6.444 C108.96,6.45200004 108.984,6.47199984 109.016,6.504 Z M116.192,17.136 C116.448001,17.2160004 116.755998,17.359999 117.116,17.568 C117.476002,17.776001 117.879998,17.9919989 118.328,18.216 C118.776002,18.4400011 119.267997,18.6399991 119.804,18.816 C120.340003,18.9920009 120.911997,19.08 121.52,19.08 L121.784,19.08 C121.88,19.08 121.991999,19.0640002 122.12,19.032 L122.384,19.224 C123.008003,19.031999 123.519998,18.6680027 123.92,18.132 C124.320002,17.5959973 124.52,16.8720046 124.52,15.96 C124.52,15.3039967 124.364002,14.8520012 124.052,14.604 C123.739998,14.3559988 123.168004,14.232 122.336,14.232 C121.823997,14.232 121.292003,14.2679996 120.74,14.34 C120.187997,14.4120004 119.608003,14.448 119,14.448 C118.727999,14.448 118.448001,14.4360001 118.16,14.412 C117.871999,14.3879999 117.576002,14.3360004 117.272,14.256 L117.272,14.4 C117.912003,14.5600008 118.543997,14.64 119.168,14.64 C119.776003,14.64 120.355997,14.6040004 120.908,14.532 C121.460003,14.4599996 121.991997,14.424 122.504,14.424 C122.936002,14.424 123.275999,14.4679996 123.524,14.556 C123.772001,14.6440004 123.959999,14.7599993 124.088,14.904 C124.216001,15.0480007 124.3,15.219999 124.34,15.42 C124.38,15.620001 124.4,15.8399988 124.4,16.08 C124.4,16.8320038 124.200002,17.4719974 123.8,18 C123.415998,18.4960025 122.960003,18.8079994 122.432,18.936 C123.024003,18.727999 123.487998,18.3680026 123.824,17.856 C124.176002,17.3119973 124.352,16.7040034 124.352,16.032 C124.352,15.5519976 124.228001,15.1840013 123.98,14.928 C123.731999,14.6719987 123.304003,14.544 122.696,14.544 C122.199998,14.544 121.640003,14.5759997 121.016,14.64 C120.391997,14.7040003 119.728004,14.736 119.024,14.736 C118.591998,14.736 118.092003,14.6800006 117.524,14.568 C116.955997,14.4559994 116.416003,14.2480015 115.904,13.944 C115.391997,13.6399985 114.960002,13.2200027 114.608,12.684 C114.255998,12.1479973 114.08,11.4480043 114.08,10.584 C114.08,9.89599656 114.219999,9.26000292 114.5,8.676 C114.780001,8.09199708 115.151998,7.5800022 115.616,7.14 C116.080002,6.6999978 116.611997,6.35200128 117.212,6.096 C117.812003,5.83999872 118.431997,5.70400008 119.072,5.688 C119.680003,5.688 120.259997,5.77199916 120.812,5.94 C121.364003,6.10800084 121.887998,6.32399868 122.384,6.588 C122.880002,6.85200132 123.351998,7.1439984 123.8,7.464 C124.248002,7.7840016 124.663998,8.1039984 125.048,8.424 L124.568,8.904 C124.455999,8.904 124.288001,8.83600068 124.064,8.7 C123.839999,8.56399932 123.496002,8.32800168 123.032,7.992 L122.888,8.208 C123.464003,8.67200232 123.883999,9.103998 124.148,9.504 C124.412001,9.904002 124.544,10.2159989 124.544,10.44 C124.512,10.5680006 124.432001,10.632 124.304,10.632 C124.175999,10.632 123.920002,10.528001 123.536,10.32 C123.151998,10.111999 122.716002,9.88000128 122.228,9.624 C121.739998,9.36799872 121.224003,9.13600104 120.68,8.928 C120.135997,8.71999896 119.640002,8.616 119.192,8.616 C118.935999,8.616 118.680001,8.66399952 118.424,8.76 C118.167999,8.85600048 117.936001,8.98799916 117.728,9.156 C117.519999,9.32400084 117.348001,9.5279988 117.212,9.768 C117.075999,10.0080012 117.008,10.2719986 117.008,10.56 C117.008,11.0240023 117.223998,11.3359992 117.656,11.496 C118.088002,11.6560008 118.655996,11.736 119.36,11.736 C119.504001,11.736 119.659999,11.732 119.828,11.724 C119.996001,11.716 120.151999,11.6960002 120.296,11.664 C120.664002,11.664 120.907999,11.6520001 121.028,11.628 C121.148001,11.6039999 121.263999,11.592 121.376,11.592 C122.064003,11.592 122.751997,11.6399995 123.44,11.736 C124.128003,11.8320005 124.743997,12.0399984 125.288,12.36 C125.832003,12.6800016 126.271998,13.135997 126.608,13.728 C126.944002,14.320003 127.112,15.111995 127.112,16.104 C127.112,16.7920034 126.996001,17.4759966 126.764,18.156 C126.531999,18.8360034 126.184002,19.4439973 125.72,19.98 C125.255998,20.5160027 124.680003,20.9479984 123.992,21.276 C123.303997,21.6040016 122.496005,21.768 121.568,21.768 C121.007997,21.768 120.348004,21.6600011 119.588,21.444 C118.827996,21.2279989 118.108003,20.9720015 117.428,20.676 C116.747997,20.3799985 116.172002,20.0720016 115.7,19.752 C115.227998,19.4319984 114.992,19.1600011 114.992,18.936 C114.992,18.8719997 115.032,18.8240002 115.112,18.792 C116.088005,19.5120036 117.079995,20.1039977 118.088,20.568 C119.080005,21.0000022 120.095995,21.2399998 121.136,21.288 C120.623997,21.2559998 120.112003,21.1680007 119.6,21.024 C119.071997,20.8639992 118.548003,20.6680012 118.028,20.436 C117.507997,20.2039988 117.012002,19.9400015 116.54,19.644 C116.067998,19.3479985 115.616002,19.0480015 115.184,18.744 L115.544,18.432 C115.496,18.4159999 115.408001,18.3600005 115.28,18.264 C115.151999,18.1679995 115.028001,18.0480007 114.908,17.904 C114.787999,17.7599993 114.68,17.6080008 114.584,17.448 C114.488,17.2879992 114.44,17.1360007 114.44,16.992 C114.44,16.8319992 114.472,16.7280002 114.536,16.68 C114.6,16.6319998 114.672,16.608 114.752,16.608 C114.832,16.608 114.999999,16.6639994 115.256,16.776 C115.512001,16.8880006 115.823998,17.0079994 116.192,17.136 Z M121.496,19.584 C120.935997,19.584 120.316003,19.4680012 119.636,19.236 C118.955997,19.0039988 118.312003,18.7040018 117.704,18.336 C118.200002,18.6720017 118.751997,18.9719987 119.36,19.236 C119.968003,19.5000013 120.671996,19.632 121.472,19.632 C122.544005,19.632 123.395997,19.3040033 124.028,18.648 C124.660003,17.9919967 124.976,17.1120055 124.976,16.008 L124.976,15.768 C124.896,15.2559974 124.724001,14.8360016 124.46,14.508 C124.195999,14.1799984 123.792003,14.0000002 123.248,13.968 C123.584002,14.0320003 123.859999,14.1359993 124.076,14.28 C124.292001,14.4240007 124.459999,14.595999 124.58,14.796 C124.700001,14.996001 124.784,15.2159988 124.832,15.456 C124.88,15.6960012 124.904,15.9439987 124.904,16.2 C124.84,17.2560053 124.504003,18.083997 123.896,18.684 C123.287997,19.284003 122.488005,19.584 121.496,19.584 Z M124.544,20.52 C124.944002,20.2639987 125.263999,19.9520018 125.504,19.584 C125.744001,19.2159982 125.951999,18.832002 126.128,18.432 C125.791998,19.1040034 125.332003,19.6959974 124.748,20.208 C124.163997,20.7200026 123.472004,21.0399994 122.672,21.168 C122.976002,21.1199998 123.291998,21.0520004 123.62,20.964 C123.948002,20.8759996 124.255999,20.728001 124.544,20.52 Z M126.824,16.008 C126.824,15.8319991 126.792,15.6640008 126.728,15.504 C126.68,15.3759994 126.64,15.2400007 126.608,15.096 L126.632,15.408 C126.648,15.5360006 126.656,15.7119989 126.656,15.936 C126.656,16.3680022 126.608,16.783998 126.512,17.184 C126.416,17.584002 126.296001,17.9759981 126.152,18.36 C126.296001,18.0079982 126.435999,17.636002 126.572,17.244 C126.708001,16.851998 126.792,16.4400022 126.824,16.008 Z M126.608,15.024 L126.608,15.096 L126.608,15.024 Z M122.408,18.96 L122.36,18.96 L122.408,18.96 Z M148.52,19.848 C148.52,19.3199974 148.484,18.7840027 148.412,18.24 C148.34,17.6959973 148.304,17.1680026 148.304,16.656 L148.304,16.008 C148.224,15.3839969 148.128001,14.6520042 148.016,13.812 C147.903999,12.9719958 147.760001,12.1760038 147.584,11.424 C147.407999,10.6719962 147.192001,10.0320026 146.936,9.504 C146.679999,8.97599736 146.360002,8.712 145.976,8.712 C145.415997,8.712 144.840003,8.9719974 144.248,9.492 C143.655997,10.0120026 143.160002,10.767995 142.76,11.76 C142.567999,12.3200028 142.436,12.9119969 142.364,13.536 C142.292,14.1600031 142.232,14.8159966 142.184,15.504 C142.136,16.1920034 142.092,16.8999964 142.052,17.628 C142.012,18.3560036 141.936001,19.1119961 141.824,19.896 C141.792,19.9760004 141.764,20.0719994 141.74,20.184 C141.716,20.2960006 141.696,20.3919996 141.68,20.472 L138.728,20.472 L138.728,18.528 C138.712,18.3679992 138.696,18.1760011 138.68,17.952 C138.664,17.7279989 138.644,17.5000012 138.62,17.268 C138.596,17.0359988 138.576,16.8080011 138.56,16.584 C138.544,16.3599989 138.528,16.1680008 138.512,16.008 C138.512,14.7119935 138.460001,13.4160065 138.356,12.12 C138.251999,10.8239935 138.184,9.50400672 138.152,8.16 L138.704,8.04 C138.752,8.04 138.804,8.08399956 138.86,8.172 C138.916,8.26000044 138.964,8.4239988 139.004,8.664 C139.044,8.9040012 139.084,9.2439978 139.124,9.684 C139.164,10.1240022 139.2,10.6959965 139.232,11.4 C139.248,11.4 139.272,11.3920001 139.304,11.376 C139.368,11.3439998 139.416,11.328 139.448,11.328 C139.448,11.2159994 139.444,11.1040006 139.436,10.992 C139.428,10.8799994 139.424,10.7680006 139.424,10.656 C139.424,9.27999312 139.515999,8.22000372 139.7,7.476 C139.884001,6.73199628 140.039999,6.36 140.168,6.36 C140.264,6.36 140.36,6.56799792 140.456,6.984 C140.552,7.40000208 140.655999,8.05599552 140.768,8.952 C141.040001,8.51999784 141.351998,8.104002 141.704,7.704 C142.056002,7.303998 142.451998,6.95600148 142.892,6.66 C143.332002,6.36399852 143.807997,6.12800088 144.32,5.952 C144.832003,5.77599912 145.391997,5.688 146,5.688 C146.528003,5.688 146.991998,5.79999888 147.392,6.024 C147.792002,6.24800112 148.147998,6.5399982 148.46,6.9 C148.772002,7.2600018 149.035999,7.66799772 149.252,8.124 C149.468001,8.58000228 149.655999,9.03599772 149.816,9.492 C149.976001,9.94800228 150.107999,10.3879979 150.212,10.812 C150.316001,11.2360021 150.408,11.5919986 150.488,11.88 C150.488,11.9120002 150.496,11.9479998 150.512,11.988 C150.528,12.0280002 150.544,12.0639998 150.56,12.096 C150.752001,11.5839974 150.991999,10.9960033 151.28,10.332 C151.568001,9.66799668 151.927998,9.04000296 152.36,8.448 C152.792002,7.85599704 153.299997,7.35600204 153.884,6.948 C154.468003,6.53999796 155.143996,6.336 155.912,6.336 C156.664004,6.336 157.303997,6.535998 157.832,6.936 C158.360003,7.336002 158.803998,7.84799688 159.164,8.472 C159.524002,9.09600312 159.811999,9.7879962 160.028,10.548 C160.244001,11.3080038 160.407999,12.0519964 160.52,12.78 C160.632001,13.5080036 160.704,14.175997 160.736,14.784 C160.768,15.392003 160.784,15.8559984 160.784,16.176 C160.784,16.6880026 160.764,17.0639988 160.724,17.304 C160.684,17.5440012 160.576001,17.664 160.4,17.664 C160.368,17.0239968 160.34,16.3760033 160.316,15.72 C160.292,15.0639967 160.244,14.4040033 160.172,13.74 C160.1,13.0759967 160.000001,12.4240032 159.872,11.784 C159.743999,11.1599969 159.576001,10.544003 159.368,9.936 C159.768002,11.2000063 160,12.4639937 160.064,13.728 C160.144,15.0080064 160.208,16.2719938 160.256,17.52 C160.143999,17.4079994 160.056,17.352 159.992,17.352 C159.944,17.352 159.912,17.3839997 159.896,17.448 L159.896,18.168 C159.896,18.376001 159.9,18.5919989 159.908,18.816 C159.916,19.0400011 159.936,19.2319992 159.968,19.392 C159.936,20.0480033 159.908,20.5159986 159.884,20.796 C159.86,21.0760014 159.8,21.2559996 159.704,21.336 C159.575999,21.336 159.464,21.2640007 159.368,21.12 C159.272,20.9759993 159.18,20.7920011 159.092,20.568 C159.004,20.3439989 158.92,20.0960014 158.84,19.824 C158.76,19.5519986 158.68,19.2880013 158.6,19.032 L158.6,18.384 C158.6,17.6799965 158.596,16.9440038 158.588,16.176 C158.58,15.4079962 158.548,14.6600036 158.492,13.932 C158.436,13.2039964 158.348001,12.5120033 158.228,11.856 C158.107999,11.1999967 157.948001,10.6200025 157.748,10.116 C157.547999,9.61199748 157.292002,9.21600144 156.98,8.928 C156.667998,8.63999856 156.288002,8.496 155.84,8.496 C155.471998,8.496 155.136002,8.59199904 154.832,8.784 C154.655999,8.89600056 154.480001,9.03999912 154.304,9.216 C154.480001,9.0559992 154.663999,8.92000056 154.856,8.808 C155.160002,8.61599904 155.487998,8.52 155.84,8.52 L155.936,8.52 C156.336002,8.52 156.675999,8.67599844 156.956,8.988 C157.236001,9.30000156 157.467999,9.71199744 157.652,10.224 C157.836001,10.7360026 157.976,11.3199967 158.072,11.976 C158.168,12.6320033 158.244,13.3119965 158.3,14.016 C158.356,14.7200035 158.392,15.4199965 158.408,16.116 C158.424,16.8120035 158.44,17.4479971 158.456,18.024 C158.36,17.5759978 158.276,17.0440031 158.204,16.428 C158.132,15.8119969 158.06,15.1680034 157.988,14.496 C157.916,13.8239966 157.828001,13.1600033 157.724,12.504 C157.619999,11.8479967 157.488001,11.2600026 157.328,10.74 C157.167999,10.2199974 156.968001,9.8000016 156.728,9.48 C156.487999,9.1599984 156.192002,9 155.84,9 C155.695999,9 155.568001,9.01199988 155.456,9.036 C155.343999,9.06000012 155.200001,9.14399928 155.024,9.288 L154.784,9.168 C154.239997,9.6480024 153.784002,10.287996 153.416,11.088 C153.047998,11.888004 152.736001,12.7479954 152.48,13.668 C152.223999,14.5880046 152.008001,15.5279952 151.832,16.488 C151.655999,17.4480048 151.488001,18.3359959 151.328,19.152 L151.328,20.064 C151.584001,18.7999937 151.819999,17.5560061 152.036,16.332 C152.252001,15.1079939 152.567998,13.9200058 152.984,12.768 C152.663998,13.760005 152.416001,14.7839947 152.24,15.84 C152.063999,16.8960053 151.864001,17.9759945 151.64,19.08 C151.64,19.1920006 151.616,19.343999 151.568,19.536 C151.52,19.728001 151.440001,20.0159981 151.328,20.4 L148.688,20.136 L148.52,19.848 Z M148.784,18.648 C148.736,18.2159978 148.692,17.6640034 148.652,16.992 C148.612,16.3199966 148.56,15.6080038 148.496,14.856 C148.432,14.1039962 148.344001,13.3440038 148.232,12.576 C148.119999,11.8079962 147.964001,11.1160031 147.764,10.5 C147.563999,9.88399692 147.316001,9.38400192 147.02,9 C146.723999,8.61599808 146.352002,8.424 145.904,8.424 C145.759999,8.424 145.608001,8.45599968 145.448,8.52 C145.287999,8.58400032 145.136001,8.6559996 144.992,8.736 C145.04,8.71999992 145.08,8.712 145.112,8.712 L145.136,8.712 C145.136,8.72800008 145.112,8.75999976 145.064,8.808 C145.496002,8.66399928 145.831999,8.592 146.072,8.592 C146.376002,8.70400056 146.647999,8.95199808 146.888,9.336 C147.128001,9.72000192 147.331999,10.1799973 147.5,10.716 C147.668001,11.2520027 147.811999,11.8319969 147.932,12.456 C148.052001,13.0800031 148.144,13.6759972 148.208,14.244 C148.272,14.8120028 148.32,15.3199978 148.352,15.768 C148.384,16.2160022 148.4,16.535999 148.4,16.728 C148.448,17.2080024 148.492,17.6799977 148.532,18.144 C148.572,18.6080023 148.592,19.0719977 148.592,19.536 L148.784,18.648 Z M150.8,12.192 C150.8,12.2080001 150.816,12.2799994 150.848,12.408 C150.88,12.5200006 150.904,12.5919998 150.92,12.624 C150.968,12.4639992 151.071999,12.2040018 151.232,11.844 C151.392001,11.4839982 151.567999,11.100002 151.76,10.692 C151.952001,10.283998 152.135999,9.90400176 152.312,9.552 C152.376,9.40799928 152.432,9.28000056 152.48,9.168 C152.432,9.26400048 152.368,9.36799944 152.288,9.48 C152.111999,9.8000016 151.920001,10.1319983 151.712,10.476 C151.503999,10.8200017 151.312001,11.1519984 151.136,11.472 C150.959999,11.7920016 150.848,12.0319992 150.8,12.192 Z M152.88034,11.4646078 C152.812889,11.6050684 152.751443,11.7515314 152.696,11.904 C152.375998,12.7200041 152.096001,13.5799955 151.856,14.484 C151.615999,15.3880045 151.400001,16.3199952 151.208,17.28 L151.256,17.664 C151.464001,16.5119942 151.703999,15.3520058 151.976,14.184 C152.214799,13.228804 152.516243,12.3223478 152.88034,11.4646078 L152.88034,11.4646078 Z M148.784,15.168 C148.816,15.4240013 148.836,15.6719988 148.844,15.912 C148.852,16.1520012 148.864,16.375999 148.88,16.584 L148.952,17.736 L148.976,17.616 C148.96,17.3919989 148.952,17.176001 148.952,16.968 L148.952,16.368 L148.784,15.168 Z M156.656,6.936 C156.367999,6.8559996 156.096001,6.816 155.84,6.816 L155.576,6.816 C155.463999,6.816 155.408,6.82399992 155.408,6.84 L155.432,6.84 C155.688001,6.90400032 155.927999,6.936 156.152,6.936 L156.656,6.936 Z M153.104,12.432 C153.184,12.2079989 153.256,11.992001 153.32,11.784 C153.4,11.575999 153.464,11.4320004 153.512,11.352 C153.512,11.3840002 153.496,11.4479995 153.464,11.544 C153.432,11.6560006 153.368,11.8239989 153.272,12.048 L153.104,12.432 Z M158.312,7.944 C158.232,7.84799952 158.128001,7.75200048 158,7.656 C157.904,7.59199968 157.816,7.53600024 157.736,7.488 C157.928001,7.61600064 158.119999,7.76799912 158.312,7.944 Z M152.6,8.952 C152.584,9.00000024 152.56,9.04799976 152.528,9.096 C152.544,9.03199968 152.568,8.98400016 152.6,8.952 Z M171.92,21.432 C171.311997,21.640001 170.848002,21.7559999 170.528,21.78 C170.207998,21.8040001 169.928001,21.8239999 169.688,21.84 C168.791996,21.84 167.984004,21.6720017 167.264,21.336 C166.543996,20.9999983 165.928003,20.5440029 165.416,19.968 C164.903997,19.3919971 164.508001,18.7160039 164.228,17.94 C163.947999,17.1639961 163.808,16.3360044 163.808,15.456 C163.808,14.9439974 163.856,14.4120028 163.952,13.86 C164.048,13.3079972 164.191999,12.7640027 164.384,12.228 C164.576001,11.6919973 164.823998,11.1920023 165.128,10.728 C165.416001,10.2639977 165.759998,9.84800184 166.16,9.48 C165.743998,9.81600168 165.392001,10.2159977 165.104,10.68 C164.799998,11.1440023 164.544001,11.6439973 164.336,12.18 C164.127999,12.7160027 163.976,13.2679972 163.88,13.836 C163.784,14.4040028 163.736,14.9519974 163.736,15.48 C163.736,16.1520034 163.843999,16.8679962 164.06,17.628 C164.276001,18.3880038 164.623998,19.0919968 165.104,19.74 C165.584002,20.3880032 166.203996,20.9279978 166.964,21.36 C167.724004,21.7920022 168.647995,22.008 169.736,22.008 C170.248003,22.008 170.783997,21.9360007 171.344,21.792 C170.735997,22.192002 170.056004,22.392 169.304,22.392 C168.695997,22.392 168.124003,22.3000009 167.588,22.116 C167.051997,21.9319991 166.556002,21.6760016 166.1,21.348 C165.643998,21.0199984 165.232002,20.6320022 164.864,20.184 C164.495998,19.7359978 164.184001,19.2560026 163.928,18.744 L164.144,18.552 C163.871999,18.0079973 163.676001,17.4640027 163.556,16.92 C163.435999,16.3759973 163.376,15.8240028 163.376,15.264 C163.376,14.4479959 163.491999,13.6640038 163.724,12.912 C163.956001,12.1599962 164.263998,11.4480034 164.648,10.776 L165.224,9.984 C165.32,9.80799912 165.459999,9.63200088 165.644,9.456 C165.828001,9.27999912 166.031999,9.10800084 166.256,8.94 C166.480001,8.77199916 166.715999,8.62000068 166.964,8.484 C167.212001,8.34799932 167.447999,8.22400056 167.672,8.112 C168.248003,7.82399856 168.823997,7.56400116 169.4,7.332 C169.976003,7.09999884 170.647996,6.92800056 171.416,6.816 L171.32,6.744 C169.847993,6.88800072 168.600005,7.24399716 167.576,7.812 C166.551995,8.38000284 165.720003,9.07199592 165.08,9.888 C164.439997,10.7040041 163.976001,11.5959952 163.688,12.564 C163.399999,13.5320048 163.256,14.4799954 163.256,15.408 C163.256,15.9040025 163.3,16.4039975 163.388,16.908 C163.476,17.4120025 163.607999,17.9119975 163.784,18.408 C163.383998,17.4479952 163.184,16.4320054 163.184,15.36 C163.184,14.3039947 163.359998,13.2560052 163.712,12.216 C164.064002,11.1759948 164.615996,10.2160044 165.368,9.336 C166.328005,8.4559956 167.375994,7.78000236 168.512,7.308 C169.648006,6.83599764 170.743995,6.6 171.8,6.6 C172.136002,6.6 172.479998,6.65599944 172.832,6.768 C173.184002,6.88000056 173.503999,7.05199884 173.792,7.284 C174.080001,7.51600116 174.315999,7.81599816 174.5,8.184 C174.684001,8.55200184 174.776,8.99999736 174.776,9.528 C174.776,9.96000216 174.672001,10.4879969 174.464,11.112 C174.255999,11.7360031 173.948002,12.3399971 173.54,12.924 C173.131998,13.5080029 172.624003,14.003998 172.016,14.412 C171.407997,14.820002 170.704004,15.024 169.904,15.024 L169.112,15.024 C168.519997,14.8959994 167.980002,14.7480008 167.492,14.58 C167.003998,14.4119992 166.544002,14.2800005 166.112,14.184 C166.048,14.4400013 166.012,14.6839988 166.004,14.916 C165.996,15.1480012 165.992,15.3759989 165.992,15.6 C165.992,16.0640023 166.043999,16.5159978 166.148,16.956 C166.252001,17.3960022 166.415999,17.7999982 166.64,18.168 C166.864001,18.5360018 167.147998,18.8439988 167.492,19.092 C167.836002,19.3400012 168.255998,19.4959997 168.752,19.56 C169.056002,19.6240003 169.319999,19.66 169.544,19.668 C169.768001,19.676 169.955999,19.684 170.108,19.692 C170.260001,19.7 170.372,19.7239998 170.444,19.764 C170.516,19.8040002 170.552,19.8799994 170.552,19.992 C170.391999,20.0400002 170.228001,20.0719999 170.06,20.088 C169.891999,20.1040001 169.720001,20.112 169.544,20.112 C168.983997,20.112 168.480002,20.0200009 168.032,19.836 C167.583998,19.6519991 167.200002,19.4400012 166.88,19.2 C167.248002,19.5680018 167.687997,19.8279992 168.2,19.98 C168.712003,20.1320008 169.215998,20.208 169.712,20.208 C169.984001,20.208 170.263999,20.1840002 170.552,20.136 C170.52,20.2320005 170.504,20.2879999 170.504,20.304 C170.504,20.4000005 170.544,20.4639998 170.624,20.496 C170.688,20.4799999 170.799999,20.4360004 170.96,20.364 C171.120001,20.2919996 171.283999,20.2200004 171.452,20.148 C171.620001,20.0759996 171.783999,20.0120003 171.944,19.956 C172.104001,19.8999997 172.216,19.872 172.28,19.872 C172.36,19.872 172.432,19.8839999 172.496,19.908 C172.56,19.9320001 172.592,20.0239992 172.592,20.184 C172.592,20.3440008 172.536001,20.5359989 172.424,20.76 C172.311999,20.9840011 172.144001,21.2079989 171.92,21.432 Z M168.608,11.928 L169.136,12.024 C169.312001,12.0560002 169.471999,12.072 169.616,12.072 C169.776001,12.072 169.963999,12.0200005 170.18,11.916 C170.396001,11.8119995 170.611999,11.664001 170.828,11.472 C171.044001,11.279999 171.235999,11.0400014 171.404,10.752 C171.572001,10.4639986 171.696,10.1360018 171.776,9.768 L171.824,9.624 C171.599999,9.624 171.264002,9.67999944 170.816,9.792 C170.367998,9.90400056 169.904002,10.0519991 169.424,10.236 C168.943998,10.4200009 168.496002,10.6359988 168.08,10.884 C167.663998,11.1320012 167.376001,11.3999986 167.216,11.688 C167.456001,11.7360002 167.691999,11.7799998 167.924,11.82 C168.156001,11.8600002 168.383999,11.8959998 168.608,11.928 Z M167.504,13.704 C167.536,13.6719998 167.556,13.6240003 167.564,13.56 C167.572,13.4959997 167.576,13.4480002 167.576,13.416 L166.448,13.008 L166.328,13.344 L167.504,13.704 Z M166.832,19.152 C166.591999,18.943999 166.400001,18.7040014 166.256,18.432 C166.32,18.5440006 166.4,18.6559994 166.496,18.768 L166.832,19.152 Z M190.544,9.6 C190.528,9.7600008 190.496,9.91599924 190.448,10.068 C190.4,10.2200008 190.368,10.3679993 190.352,10.512 C190.223999,10.3839994 190.012001,10.2960002 189.716,10.248 C189.419999,10.1999998 189.184001,10.176 189.008,10.176 C188.831999,10.176 188.672001,10.1999998 188.528,10.248 L188.696,10.248 C188.968001,10.248 189.243999,10.2679998 189.524,10.308 C189.804001,10.3480002 190.055999,10.471999 190.28,10.68 C190.216,10.8080006 190.152,10.8959998 190.088,10.944 C189.927999,10.8799997 189.744001,10.8320002 189.536,10.8 L189.536,10.536 C189.375999,10.5680002 189.256,10.584 189.176,10.584 C189.096,10.584 189.016,10.58 188.936,10.572 C188.856,10.564 188.776,10.56 188.696,10.56 C188.567999,10.56 188.448001,10.5719999 188.336,10.596 C188.223999,10.6200001 188.128,10.6719996 188.048,10.752 L188.096,10.872 L188.432,10.776 C188.544001,10.7439998 188.655999,10.728 188.768,10.728 C189.024001,10.728 189.271999,10.7519998 189.512,10.8 C189.432,10.8 189.280001,10.8079999 189.056,10.824 C188.831999,10.8400001 188.604001,10.8679998 188.372,10.908 C188.139999,10.9480002 187.936001,10.9999997 187.76,11.064 C187.583999,11.1280003 187.496,11.1999996 187.496,11.28 C187.319999,11.1519994 187.160001,11.0480004 187.016,10.968 C186.871999,10.8879996 186.736001,10.7600009 186.608,10.584 L186.68,10.488 L186.512,10.296 C186.399999,10.296 186.276001,10.2760002 186.14,10.236 C186.003999,10.1959998 185.876001,10.1400004 185.756,10.068 C185.635999,9.99599964 185.536,9.90800052 185.456,9.804 C185.376,9.69999948 185.336,9.58400064 185.336,9.456 C185.608001,9.00799776 185.991998,8.6440014 186.488,8.364 C186.984002,8.0839986 187.487997,7.944 188,7.944 C188.320002,7.944 188.627999,7.99199952 188.924,8.088 C189.220001,8.18400048 189.527998,8.232 189.848,8.232 C189.912,8.232 189.972,8.22400008 190.028,8.208 C190.084,8.19199992 190.136,8.184 190.184,8.184 C190.328001,8.184 190.4,8.28799896 190.4,8.496 L190.376,8.664 L189.416,8.568 C189.095998,8.53599984 188.784002,8.48800032 188.48,8.424 C188.784002,8.53600056 189.095998,8.59999992 189.416,8.616 C189.736002,8.63200008 190.055998,8.69599944 190.376,8.808 L190.352,9.192 L190.472,9.192 C190.488,9.25600032 190.504,9.32399964 190.52,9.396 C190.536,9.46800036 190.544,9.53599968 190.544,9.6 Z M190.16,20.232 C189.839998,20.1039994 189.556001,20.0000004 189.308,19.92 C189.059999,19.8399996 188.768002,19.7840002 188.432,19.752 C188.736002,19.8480005 189.027999,19.9239997 189.308,19.98 C189.588001,20.0360003 189.855999,20.1759989 190.112,20.4 C190.064,20.4960005 189.984001,20.5839996 189.872,20.664 C189.792,20.6319998 189.708,20.6000002 189.62,20.568 C189.532,20.5359998 189.44,20.5120001 189.344,20.496 L189.344,20.232 C189.312,20.232 189.284,20.236 189.26,20.244 C189.236,20.252 189.208,20.256 189.176,20.256 C188.967999,20.256 188.800001,20.2200004 188.672,20.148 C188.543999,20.0759996 188.384001,20.04 188.192,20.04 C188.031999,20.04 187.92,20.1119993 187.856,20.256 C188.032001,20.256 188.223999,20.2799998 188.432,20.328 C188.624001,20.3760002 188.815999,20.4159998 189.008,20.448 L188.288,20.448 C188.079999,20.448 187.872001,20.4400001 187.664,20.424 C187.455999,20.4079999 187.268001,20.3720003 187.1,20.316 C186.931999,20.2599997 186.796001,20.1800005 186.692,20.076 C186.587999,19.9719995 186.536,19.8320009 186.536,19.656 C186.536,19.4799991 186.568,19.3360006 186.632,19.224 L186.704,19.248 L186.704,18.984 C186.608,18.8559994 186.544,18.7120008 186.512,18.552 C186.48,18.3919992 186.464,18.2320008 186.464,18.072 C186.464,17.7519984 186.575999,17.5480004 186.8,17.46 C187.024001,17.3719996 187.271999,17.328 187.544,17.328 C187.672001,17.328 187.791999,17.332 187.904,17.34 C188.016001,17.348 188.12,17.352 188.216,17.352 C188.28,17.352 188.383999,17.3839997 188.528,17.448 C188.672001,17.5120003 188.823999,17.5799996 188.984,17.652 C189.144001,17.7240004 189.299999,17.7919997 189.452,17.856 C189.604001,17.9200003 189.728,17.952 189.824,17.952 L190.064,17.928 C190.16,18.0720007 190.208,18.2319991 190.208,18.408 C189.951999,18.3599998 189.704001,18.3040003 189.464,18.24 C189.223999,18.1759997 188.992001,18.0800006 188.768,17.952 C188.976001,18.1120008 189.207999,18.2199997 189.464,18.276 C189.720001,18.3320003 189.959999,18.4159994 190.184,18.528 L190.16,18.912 L190.256,18.936 C190.304,19.0800007 190.328,19.2319992 190.328,19.392 C190.328,19.6480013 190.272001,19.9279985 190.16,20.232 Z M193.04,1.272 C193.840004,1.272 194.571997,1.41999852 195.236,1.716 C195.900003,2.01200148 196.491997,2.41599744 197.012,2.928 C197.532003,3.44000256 197.979998,4.02799668 198.356,4.692 C198.732002,5.35600332 199.043999,6.05199636 199.292,6.78 C199.540001,7.50800364 199.723999,8.24799624 199.844,9 C199.964001,9.75200376 200.024,10.4639966 200.024,11.136 C200.024,11.7760032 199.98,12.4839961 199.892,13.26 C199.804,14.0360039 199.672001,14.8159961 199.496,15.6 C199.319999,16.3840039 199.100001,17.1399964 198.836,17.868 C198.571999,18.5960036 198.264002,19.2319973 197.912,19.776 C197.767999,20.0000011 197.516002,20.3279978 197.156,20.76 C196.795998,21.1920022 196.404002,21.6279978 195.98,22.068 C195.555998,22.5080022 195.136002,22.8999983 194.72,23.244 C194.303998,23.5880017 193.976001,23.7679999 193.736,23.784 L193.52,23.592 C194.352004,22.9679969 195.075997,22.3400032 195.692,21.708 C196.308003,21.0759968 196.843998,20.4000036 197.3,19.68 C197.756002,18.9599964 198.135998,18.1800042 198.44,17.34 C198.744002,16.4999958 198.999999,15.576005 199.208,14.568 C198.967999,15.5920051 198.700001,16.5159959 198.404,17.34 C198.107999,18.1640041 197.740002,18.9279965 197.3,19.632 C196.859998,20.3360035 196.328003,20.9999969 195.704,21.624 C195.079997,22.2480031 194.336004,22.863997 193.472,23.472 L193.256,23.136 C193.16,23.2800007 193.004001,23.4079994 192.788,23.52 C192.571999,23.6320006 192.376001,23.688 192.2,23.688 C191.895998,23.688 191.744,23.5520014 191.744,23.28 C191.744,23.1359993 191.772,22.9920007 191.828,22.848 C191.884,22.7039993 191.952,22.5680006 192.032,22.44 C192.752004,21.9599976 193.395997,21.4840024 193.964,21.012 C194.532003,20.5399976 195.027998,20.0280028 195.452,19.476 C195.876002,18.9239972 196.231999,18.3160033 196.52,17.652 C196.808001,16.9879967 197.039999,16.2160044 197.216,15.336 C197.039999,16.1520041 196.816001,16.8839968 196.544,17.532 C196.271999,18.1800032 195.932002,18.7719973 195.524,19.308 C195.115998,19.8440027 194.640003,20.3399977 194.096,20.796 C193.551997,21.2520023 192.920004,21.679998 192.2,22.08 C192.408001,21.7439983 192.655999,21.4400014 192.944,21.168 L193.808,20.4 C194.096001,20.1279986 194.379999,19.8560014 194.66,19.584 C194.940001,19.3119986 195.183999,19.0080017 195.392,18.672 L195.608,18.816 C196.200003,17.7119945 196.635999,16.5240064 196.916,15.252 C197.196001,13.9799936 197.336,12.7200062 197.336,11.472 C197.336,11.1199982 197.32,10.7680018 197.288,10.416 C197.256,10.0639982 197.2,9.72000168 197.12,9.384 C197.12,9.43200024 197.104,9.456 197.072,9.456 C197.024,9.456 197,9.44800008 197,9.432 C197.032,9.78400176 197.056,10.1359982 197.072,10.488 C197.104,10.8400018 197.12,11.2079981 197.12,11.592 C197.12,12.7440058 197.008001,13.8959942 196.784,15.048 C196.575999,16.1840057 196.216003,17.1999955 195.704,18.096 C195.944001,17.6319977 196.151999,17.1360026 196.328,16.608 C196.504001,16.0479972 196.643999,15.472003 196.748,14.88 C196.852001,14.287997 196.924,13.7040029 196.964,13.128 C197.004,12.5519971 197.024,12.0000026 197.024,11.472 C197.024,10.671996 196.952001,9.84400428 196.808,8.988 C196.663999,8.13199572 196.408002,7.34000364 196.04,6.612 C195.671998,5.88399636 195.180003,5.26400256 194.564,4.752 C193.947997,4.23999744 193.168005,3.92000064 192.224,3.792 C192.24,3.74399976 192.248,3.67200048 192.248,3.576 L192.248,3.336 C192.248,3.23999952 192.272,3.16000032 192.32,3.096 C192.368,3.03199968 192.479999,3 192.656,3 C192.784001,3 192.915999,3.01599984 193.052,3.048 C193.188001,3.08000016 193.319999,3.11199984 193.448,3.144 L193.496,2.904 C193.4,2.87199984 193.256001,2.8160004 193.064,2.736 C192.871999,2.6559996 192.676001,2.56000056 192.476,2.448 C192.275999,2.33599944 192.104001,2.2200006 191.96,2.1 C191.815999,1.9799994 191.744,1.85600064 191.744,1.728 C191.744,1.61599944 191.795999,1.52800032 191.9,1.464 C192.004001,1.39999968 192.127999,1.35600012 192.272,1.332 C192.416001,1.30799988 192.559999,1.29200004 192.704,1.284 C192.848001,1.27599996 192.96,1.272 193.04,1.272 Z" id="it’s-me-:)" fill="#E6E6E6"></path>
            <g id="Arrow" transform="translate(0.000000, 15.000000)" stroke="#E6E6E6" stroke-width="3" stroke-linecap="round">
                <path d="M0,31.8823001 C19.514983,12.0084532 34.2444391,4.52760684 60,0.882300079" id="Path"></path>
                <path d="M0.218177141,30.9952336 C1.14545143,28.663489 2.07272571,26.3317445 3,24" id="Path-2"></path>
                <path d="M0,32 C2.66666667,31 5.33333333,30 8,29" id="Path-2"></path>
            </g>
        </g>
    </g>
</svg>