<?xml version="1.0" encoding="UTF-8"?>
<svg width="201px" height="50px" viewBox="0 0 201 50" version="1.1" xmlns="http://www.w3.org/2000/svg" xmlns:xlink="http://www.w3.org/1999/xlink">
    <!-- Generator: Sketch 47.1 (45422) - http://www.bohemiancoding.com/sketch -->
    <title>Group</title>
    <desc>Created with Sketch.</desc>
    <defs></defs>
    <g id="Page-1" stroke="none" stroke-width="1" fill="none" fill-rule="evenodd">
        <g id="Group" transform="translate(2.000000, 2.000000)">
            <path d="M91.736,25.904 L92.144,25.904 C93.0720046,25.904 93.9919954,26.0679984 94.904,26.396 C95.8160046,26.7240016 96.6319964,27.183997 97.352,27.776 C98.0720036,28.368003 98.6519978,29.0759959 99.092,29.9 C99.5320022,30.7240041 99.752,31.6239951 99.752,32.6 C99.752,33.6400052 99.6080014,34.5079965 99.32,35.204 C99.0319986,35.9000035 98.6240026,36.4719978 98.096,36.92 C97.5679974,37.3680022 96.9360037,37.7159988 96.2,37.964 C95.4639963,38.2120012 94.6480045,38.4159992 93.752,38.576 C94.3120028,38.5279998 94.9399965,38.4240008 95.636,38.264 C96.3320035,38.1039992 96.9879969,37.820002 97.604,37.412 C98.2200031,37.003998 98.7359979,36.4360036 99.152,35.708 C99.5680021,34.9799964 99.776,34.0240059 99.776,32.84 C99.776,31.3839927 99.3680041,30.0720058 98.552,28.904 C97.7359959,27.7359942 96.5200081,26.856003 94.904,26.264 C94.503998,26.0879991 94.0920021,25.9480005 93.668,25.844 C93.2439979,25.7399995 92.8160022,25.688 92.384,25.688 C92.5280007,25.6079996 92.7199988,25.564 92.96,25.556 C93.2000012,25.548 93.3919993,25.544 93.536,25.544 C94.1600031,25.544 94.8039967,25.6719987 95.468,25.928 C96.1320033,26.1840013 96.759997,26.5359978 97.352,26.984 C97.944003,27.4320022 98.4679977,27.955997 98.924,28.556 C99.3800023,29.156003 99.7199989,29.7919966 99.944,30.464 C99.8639996,30.4960002 99.7920003,30.5599995 99.728,30.656 C99.8560006,31.056002 99.9519997,31.4479981 100.016,31.832 C100.08,32.2160019 100.112,32.607998 100.112,33.008 C100.112,33.4560022 100.076,33.9039978 100.004,34.352 C99.9319996,34.8000022 99.7880011,35.2399978 99.572,35.672 C99.3559989,36.1040022 99.052002,36.5119981 98.66,36.896 C98.267998,37.2800019 97.7520032,37.6239985 97.112,37.928 C96.4719968,38.2320015 95.6880046,38.483999 94.76,38.684 C93.8319954,38.884001 92.7280064,39.0159997 91.448,39.08 C91.3679996,39.1280002 91.2560007,39.156 91.112,39.164 C90.9679993,39.172 90.8240007,39.176 90.68,39.176 L90.344,39.176 C90.1039988,39.176 89.8560013,39.1320004 89.6,39.044 C89.3439987,38.9559996 89.112001,38.8040011 88.904,38.588 C88.695999,38.3719989 88.5280006,38.0840018 88.4,37.724 C88.2719994,37.3639982 88.208,36.9120027 88.208,36.368 L88.208,36.104 C88.1919999,36.1680003 88.1680002,36.2 88.136,36.2 C88.0879998,36.2 88.064,36.1840002 88.064,36.152 L88.064,36.272 C88.064,36.5600014 88.0799998,36.8839982 88.112,37.244 C88.1440002,37.6040018 88.2359992,37.9439984 88.388,38.264 C88.5400008,38.5840016 88.7799984,38.8519989 89.108,39.068 C89.4360016,39.2840011 89.903997,39.392 90.512,39.392 C90.6560007,39.392 90.8039992,39.388 90.956,39.38 C91.1080008,39.372 91.2719991,39.3440002 91.448,39.296 C92.6160058,39.2479998 93.7319947,39.120001 94.796,38.912 C95.8600053,38.703999 96.7999959,38.3640024 97.616,37.892 C98.4320041,37.4199976 99.0799976,36.7760041 99.56,35.96 C100.040002,35.1439959 100.28,34.0960064 100.28,32.816 C100.28,32.3999979 100.248,31.9760022 100.184,31.544 C100.2,31.7200009 100.224,31.8879992 100.256,32.048 C100.288,32.3040013 100.304,32.5599987 100.304,32.816 C100.304,33.1680018 100.284,33.5679978 100.244,34.016 C100.204,34.4640022 100.100001,34.9199977 99.932,35.384 C99.7639992,35.8480023 99.5200016,36.3039978 99.2,36.752 C98.8799984,37.2000022 98.4320029,37.5919983 97.856,37.928 C97.263997,38.2800018 96.6520032,38.555999 96.02,38.756 C95.3879968,38.956001 94.7880028,39.1079995 94.22,39.212 C93.6519972,39.3160005 93.1400023,39.3799999 92.684,39.404 C92.2279977,39.4280001 91.8880011,39.44 91.664,39.44 L91.376,39.44 C91.2319993,39.44 91.0840008,39.4519999 90.932,39.476 C90.7799992,39.5000001 90.6160009,39.512 90.44,39.512 L90.32,39.512 C90.1759993,39.512 89.9960011,39.4960002 89.78,39.464 C89.5639989,39.4319998 89.3400012,39.3520006 89.108,39.224 C88.8759988,39.0959994 88.664001,38.8920014 88.472,38.612 C88.279999,38.3319986 88.1440004,37.9360026 88.064,37.424 C88.0319998,37.2479991 88.0080001,37.0720009 87.992,36.896 C87.9759999,36.7199991 87.9520002,36.5600007 87.92,36.416 C87.92,36.0959984 87.9439998,35.7960014 87.992,35.516 C88.0400002,35.2359986 88.064,35.0080009 88.064,34.832 L88.064,30.44 L87.2,25.904 C87.2160001,25.5839984 87.2359999,25.2320019 87.26,24.848 C87.2840001,24.4639981 87.3079999,24.068002 87.332,23.66 C87.3560001,23.251998 87.3759999,22.848002 87.392,22.448 C87.4080001,22.047998 87.416,21.6640018 87.416,21.296 C87.416,21.1679994 87.412,21.0440006 87.404,20.924 C87.396,20.8039994 87.392,20.6880006 87.392,20.576 C87.4400002,20.6240002 87.4879998,20.648 87.536,20.648 C87.6000003,20.648 87.6679996,20.6280002 87.74,20.588 C87.8120004,20.5479998 87.8799997,20.528 87.944,20.528 C87.9920002,20.528 88.0399998,20.5519998 88.088,20.6 C88.1360002,20.6480002 88.1799998,20.7359994 88.22,20.864 C88.2600002,20.9920006 88.2879999,21.1799988 88.304,21.428 C88.3200001,21.6760012 88.328,21.9919981 88.328,22.376 L88.544,22.376 C88.6080003,21.4959956 88.7239992,20.8080025 88.892,20.312 C89.0600008,19.8159975 89.2319991,19.568 89.408,19.568 C89.616001,19.568 89.7679995,19.8239974 89.864,20.336 C89.9600005,20.8480026 90.0279998,21.4919961 90.068,22.268 C90.1080002,23.0440039 90.1439998,23.8919954 90.176,24.812 C90.2080002,25.7320046 90.2719995,26.5999959 90.368,27.416 C90.5440009,28.3600047 90.6879994,29.3639947 90.8,30.428 C90.9120006,31.4920053 90.9839998,32.527995 91.016,33.536 C91.016,34.2880038 91.0080001,34.8239984 90.992,35.144 C90.9759999,35.4640016 90.9520002,35.6959993 90.92,35.84 L90.92,36.488 L91.736,36.416 C92.2480026,36.416 92.7759973,36.3880003 93.32,36.332 C93.8640027,36.2759997 94.3199982,36.1840006 94.688,36.056 C95.3600034,35.9439994 95.8839981,35.7800011 96.26,35.564 C96.6360019,35.3479989 96.919999,35.1120013 97.112,34.856 C97.304001,34.5999987 97.4239998,34.3280014 97.472,34.04 C97.5200002,33.7519986 97.544,33.4800013 97.544,33.224 C97.544,32.7279975 97.5080004,32.2520023 97.436,31.796 C97.3639996,31.3399977 97.224001,30.916002 97.016,30.524 C96.807999,30.131998 96.504002,29.7720016 96.104,29.444 C95.703998,29.1159984 95.1840032,28.8240013 94.544,28.568 C93.8399965,28.2959986 93.3320016,28.1360002 93.02,28.088 C92.7079984,28.0399998 92.552,27.9440007 92.552,27.8 C92.552,27.7839999 92.5679998,27.7280005 92.6,27.632 C93.2720034,27.6640002 93.9439966,27.8239986 94.616,28.112 C95.2400031,28.3840014 95.8079974,28.7279979 96.32,29.144 C95.8239975,28.7279979 95.272003,28.3840014 94.664,28.112 C94.0079967,27.8079985 93.3440034,27.6240003 92.672,27.56 C92.7200002,27.4959997 92.744,27.4160005 92.744,27.32 C92.744,27.2719998 92.7200002,27.2080004 92.672,27.128 L92.264,27.128 C92.1519994,27.128 92.0320006,27.1359999 91.904,27.152 C91.7759994,27.1680001 91.6720004,27.1839999 91.592,27.2 C91.2079981,27.1679998 90.9400008,27.1120004 90.788,27.032 C90.6359992,26.9519996 90.56,26.8560006 90.56,26.744 C90.56,26.5839992 90.6919987,26.4240008 90.956,26.264 C91.2200013,26.1039992 91.4799987,25.9840004 91.736,25.904 Z M98.048,32.768 C98.048,33.5040037 97.9600009,34.1039977 97.784,34.568 C97.6079991,35.0320023 97.3600016,35.3919987 97.04,35.648 C97.4560021,35.3599986 97.7319993,34.9920022 97.868,34.544 C98.0040007,34.0959978 98.072,33.5280034 98.072,32.84 C98.072,32.7279994 98.0640001,32.6240005 98.048,32.528 C98.048,32.4479996 98.0400001,32.3600005 98.024,32.264 L98.024,32.528 C98.0400001,32.6080004 98.048,32.6879996 98.048,32.768 Z M96.392,29.216 C96.3599998,29.1999999 96.3360001,29.1760002 96.32,29.144 C96.3520002,29.1600001 96.3759999,29.1839998 96.392,29.216 Z M100.16,31.376 L100.16,31.448 L100.16,31.376 Z M115.592,23.384 L115.52,23.816 C115.44,24.6000039 115.392,25.4399955 115.376,26.336 C115.36,27.2160044 115.296001,28.1039955 115.184,29 C115.312001,28.1199956 115.416,27.2560042 115.496,26.408 C115.576,25.5279956 115.656,24.6640042 115.736,23.816 C115.816,24.0720013 115.884,24.3439986 115.94,24.632 C115.996,24.9200014 116.024,25.2239984 116.024,25.544 C115.944,26.344004 115.872,27.1119963 115.808,27.848 C115.744,28.5840037 115.656001,29.351996 115.544,30.152 L115.232,30.224 C115.152,30.9600037 114.984001,31.7599957 114.728,32.624 C114.471999,33.4880043 114.100002,34.2879963 113.612,35.024 C113.123998,35.7600037 112.496004,36.3719976 111.728,36.86 C110.959996,37.3480024 110.040005,37.592 108.968,37.592 C108.615998,37.592 108.244002,37.5640003 107.852,37.508 C107.459998,37.4519997 107.080002,37.3640006 106.712,37.244 C106.343998,37.1239994 105.992002,36.968001 105.656,36.776 C105.319998,36.583999 105.032001,36.3440014 104.792,36.056 L104.816,36.104 L104.816,36.128 L104.792,36.152 L104.72,36.128 C104.816,36.2720007 104.919999,36.3999994 105.032,36.512 C104.743999,36.2559987 104.480001,35.9600017 104.24,35.624 C103.839998,35.0799973 103.520001,34.4320038 103.28,33.68 C103.135999,33.2319978 103.024,32.7760023 102.944,32.312 C102.864,31.8479977 102.808,31.3560026 102.776,30.836 C102.744,30.3159974 102.724,29.752003 102.716,29.144 C102.708,28.535997 102.704,27.8640037 102.704,27.128 C102.848001,26.5519971 102.96,25.9760029 103.04,25.4 C103.12,24.8239971 103.176,24.2480029 103.208,23.672 C103.256,23.672 103.312,23.6640001 103.376,23.648 C103.44,23.6319999 103.504,23.624 103.568,23.624 C103.680001,23.624 103.78,23.6879994 103.868,23.816 C103.956,23.9440006 104,24.2159979 104,24.632 L104,24.848 C104,24.9120003 103.992,24.9839996 103.976,25.064 L104.264,25.064 C104.392001,24.3919966 104.543999,23.8800018 104.72,23.528 C104.896001,23.1759982 105.071999,23 105.248,23 C105.376001,23 105.491999,23.1799982 105.596,23.54 C105.700001,23.9000018 105.752,24.4639962 105.752,25.232 C105.752,25.7920028 105.736,26.3599971 105.704,26.936 C105.672,27.5120029 105.656,28.103997 105.656,28.712 C105.656,29.6560047 105.7,30.5119962 105.788,31.28 C105.876,32.0480038 106.047999,32.7039973 106.304,33.248 C106.560001,33.7920027 106.923998,34.2119985 107.396,34.508 C107.868002,34.8040015 108.479996,34.952 109.232,34.952 C109.856003,34.952 110.375998,34.7600019 110.792,34.376 C111.208002,33.9919981 111.559999,33.4800032 111.848,32.84 C112.136001,32.1999968 112.379999,31.4600042 112.58,30.62 C112.780001,29.7799958 112.967999,28.9040046 113.144,27.992 C113.176,27.7359987 113.2,27.4800013 113.216,27.224 C113.232,26.9679987 113.24,26.7040014 113.24,26.432 L113.24,25.688 C113.24,25.2239977 113.264,24.8320016 113.312,24.512 C113.36,24.1919984 113.495999,24.0080002 113.72,23.96 C113.72,24.7760041 113.696,25.583996 113.648,26.384 C113.616,27.1520038 113.552,27.9199962 113.456,28.688 C113.568001,27.9359962 113.656,27.1840038 113.72,26.432 C113.784,25.6479961 113.832,24.8480041 113.864,24.032 C113.96,24.0960003 114.04,24.128 114.104,24.128 C114.168,24.128 114.232,24.0960003 114.296,24.032 L114.296,23.168 C114.376,22.8799986 114.456,22.6760006 114.536,22.556 C114.616,22.4359994 114.704,22.376 114.8,22.376 C114.896,22.376 114.992,22.4239995 115.088,22.52 C115.184,22.6160005 115.28,22.7359993 115.376,22.88 L115.592,23.384 Z M105.68,36.992 C106.064002,37.200001 106.459998,37.3639994 106.868,37.484 C107.276002,37.6040006 107.659998,37.6879998 108.02,37.736 C108.380002,37.7840002 108.671999,37.808 108.896,37.808 C110.016006,37.808 110.967996,37.5600025 111.752,37.064 C112.536004,36.5679975 113.179997,35.9480037 113.684,35.204 C114.188003,34.4599963 114.575999,33.6640042 114.848,32.816 C115.104001,32.015996 115.295999,31.2800034 115.424,30.608 C115.311999,31.2800034 115.136001,32.0239959 114.896,32.84 C114.623999,33.7040043 114.236003,34.5119962 113.732,35.264 C113.227997,36.0160038 112.592004,36.6479974 111.824,37.16 C111.055996,37.6720026 110.128005,37.928 109.04,37.928 C108.431997,37.928 107.832003,37.8480008 107.24,37.688 C106.647997,37.5279992 106.096003,37.2800017 105.584,36.944 L105.68,36.992 Z M114.872,31.088 C114.92,30.8159986 114.96,30.5520013 114.992,30.296 L115.088,29.624 C114.992,30.3280035 114.832001,31.0719961 114.608,31.856 C114.383999,32.6720041 114.072002,33.4439964 113.672,34.172 C113.271998,34.9000036 112.768003,35.5439972 112.16,36.104 C111.583997,36.6320026 110.912004,36.991999 110.144,37.184 C110.816003,37.0399993 111.415997,36.7600021 111.944,36.344 C112.488003,35.9119978 112.951998,35.4080029 113.336,34.832 C113.720002,34.2559971 114.035999,33.6400033 114.284,32.984 C114.532001,32.3279967 114.727999,31.696003 114.872,31.088 Z M112.496,32.768 C112.319999,33.1200018 112.124001,33.4559984 111.908,33.776 C111.691999,34.0960016 111.448001,34.3839987 111.176,34.64 C111.464001,34.3999988 111.715999,34.1200016 111.932,33.8 C112.148001,33.4799984 112.335999,33.1360018 112.496,32.768 Z M105.584,36.944 C105.391999,36.8159994 105.208001,36.6720008 105.032,36.512 C105.208001,36.6720008 105.391999,36.8159994 105.584,36.944 Z M115.112,29.504 C115.096,29.5520002 115.088,29.5919998 115.088,29.624 C115.088,29.5919998 115.096,29.5520002 115.112,29.504 Z M127.352,26 C127.207999,26 127.012001,26.0239998 126.764,26.072 C126.515999,26.1200002 126.268001,26.1759997 126.02,26.24 C125.771999,26.3040003 125.548001,26.3679997 125.348,26.432 C125.147999,26.4960003 125.024,26.5439998 124.976,26.576 C125.392002,26.5119997 125.775998,26.4360004 126.128,26.348 C126.480002,26.2599996 126.863998,26.216 127.28,26.216 C127.2,26.3600007 127.096001,26.4719996 126.968,26.552 C126.839999,26.6320004 126.700001,26.6919998 126.548,26.732 C126.395999,26.7720002 126.232001,26.8039999 126.056,26.828 C125.879999,26.8520001 125.696001,26.8879998 125.504,26.936 L125.336,26.72 C125.031998,26.8320006 124.800001,26.8999999 124.64,26.924 C124.479999,26.9480001 124.312001,26.96 124.136,26.96 C123.943999,26.96 123.748001,26.956 123.548,26.948 C123.347999,26.94 123.128001,26.936 122.888,26.936 C122.888,27.0160004 122.88,27.0799998 122.864,27.128 C123.232002,27.128 123.543999,27.124 123.8,27.116 C124.056001,27.108 124.367998,27.0800002 124.736,27.032 C124.383998,27.0960003 124.076001,27.1439998 123.812,27.176 C123.547999,27.2080002 123.232002,27.224 122.864,27.224 C122.8,27.5920018 122.744,27.9519982 122.696,28.304 C122.648,28.6560018 122.624,28.9999983 122.624,29.336 C122.624,29.528001 122.632,29.7519987 122.648,30.008 C122.664,30.2640013 122.684,30.5239987 122.708,30.788 C122.732,31.0520013 122.752,31.2999988 122.768,31.532 C122.784,31.7640012 122.792,31.9359994 122.792,32.048 L122.792,33.488 C122.872,33.8080016 123.103998,34.0479992 123.488,34.208 C123.872002,34.3680008 124.423996,34.448 125.144,34.448 L125.912,34.448 C126.184001,34.448 126.371999,34.4759997 126.476,34.532 C126.580001,34.5880003 126.632,34.6639995 126.632,34.76 C126.632,34.8400004 126.568001,34.884 126.44,34.892 C126.311999,34.9 126.184001,34.904 126.056,34.904 C125.591998,34.904 125.104003,34.8720003 124.592,34.808 C124.111998,34.7439997 123.640002,34.6720004 123.176,34.592 C123.640002,34.7040006 124.127997,34.8079995 124.64,34.904 C125.168003,34.9840004 125.679998,35.024 126.176,35.024 L126.392,35.024 C126.456,35.024 126.528,35.0160001 126.608,35 C126.608,35.0800004 126.612,35.1519997 126.62,35.216 C126.628,35.2800003 126.648,35.3519996 126.68,35.432 L126.872,35.384 C126.92,35.3679999 126.976,35.356 127.04,35.348 C127.104,35.34 127.152,35.3200002 127.184,35.288 C127.696003,35.3360002 127.952,35.5119985 127.952,35.816 C127.952,35.9920009 127.904,36.1359994 127.808,36.248 C127.712,36.3600006 127.592001,36.4479997 127.448,36.512 C127.303999,36.5760003 127.144001,36.6199999 126.968,36.644 C126.791999,36.6680001 126.624001,36.68 126.464,36.68 C125.903997,36.68 125.356003,36.6440004 124.82,36.572 C124.283997,36.4999996 123.760003,36.4240004 123.248,36.344 C123.696002,36.5040008 124.263997,36.6319995 124.952,36.728 C125.640003,36.8240005 126.335996,36.872 127.04,36.872 C126.863999,36.9840006 126.656001,37.0719997 126.416,37.136 C126.175999,37.2000003 125.928001,37.232 125.672,37.232 L123.944,37.016 C123.719999,36.9839998 123.548001,36.9520002 123.428,36.92 C123.307999,36.8879998 123.192001,36.8520002 123.08,36.812 C122.967999,36.7719998 122.844001,36.7280002 122.708,36.68 C122.571999,36.6319998 122.384001,36.5760003 122.144,36.512 L122.144,36.248 C121.727998,36.1359994 121.392001,35.9440014 121.136,35.672 C120.879999,35.3999986 120.680001,35.1040016 120.536,34.784 C120.391999,34.4639984 120.296,34.1400016 120.248,33.812 C120.2,33.4839984 120.176,33.1920013 120.176,32.936 C120.176,32.6639986 120.18,32.4120012 120.188,32.18 C120.196,31.9479988 120.2,31.7120012 120.2,31.472 C120.2,31.2959991 120.196,31.0720014 120.188,30.8 C120.18,30.5279986 120.168,30.2400015 120.152,29.936 C120.136,29.6319985 120.124,29.3200016 120.116,29 C120.108,28.6799984 120.104,28.3760014 120.104,28.088 C120.104,27.9119991 120.108,27.7440008 120.116,27.584 C120.124,27.4239992 120.136,27.2800006 120.152,27.152 L119.912,27.152 C119.896,27.2640006 119.888,27.3919993 119.888,27.536 L119.888,27.968 C119.888,28.4320023 119.896,28.8919977 119.912,29.348 C119.928,29.8040023 119.94,30.2239981 119.948,30.608 C119.956,30.9920019 119.968,31.3239986 119.984,31.604 C120,31.8840014 120.008,32.0879994 120.008,32.216 L120.008,33.368 C119.96,32.9359978 119.912,32.320004 119.864,31.52 C119.816,30.5919954 119.792,29.5680056 119.792,28.448 L119.792,28.016 C119.792,27.8399991 119.796,27.6720008 119.804,27.512 C119.812,27.3519992 119.832,27.2320004 119.864,27.152 L119.048,27.104 C118.871999,26.9919994 118.696001,26.9040003 118.52,26.84 C118.343999,26.7759997 118.184001,26.744 118.04,26.744 L118.04,26.264 C118.04,26.1679995 118.052,26.0840004 118.076,26.012 C118.1,25.9399996 118.175999,25.904 118.304,25.904 C118.336,25.904 118.415999,25.9199998 118.544,25.952 L118.544,25.664 C118.367999,25.5679995 118.224001,25.4360008 118.112,25.268 C117.999999,25.0999992 117.944,24.9280009 117.944,24.752 C117.944,24.3359979 118.239997,24.128 118.832,24.128 C119.056001,24.128 119.287999,24.1439998 119.528,24.176 C119.768001,24.2080002 120.015999,24.2319999 120.272,24.248 C120.336,23.8959982 120.392,23.5800014 120.44,23.3 C120.488,23.0199986 120.536,22.7480013 120.584,22.484 C120.632,22.2199987 120.688,21.9560013 120.752,21.692 C120.816,21.4279987 120.896,21.1520014 120.992,20.864 C121.136001,20.5439984 121.248,20.1960019 121.328,19.82 C121.408,19.4439981 121.464,19.0720018 121.496,18.704 L122,18.728 C122.08,18.728 122.148,18.7519998 122.204,18.8 C122.26,18.8480002 122.288,18.9599991 122.288,19.136 C122.288,19.2800007 122.264,19.4719988 122.216,19.712 L122.504,19.784 C122.632001,19.3519978 122.787999,19.0000014 122.972,18.728 C123.156001,18.4559986 123.335999,18.32 123.512,18.32 C123.784001,18.32 123.952,18.6639966 124.016,19.352 L124.016,19.784 C124.016,20.2000021 123.988,20.5879982 123.932,20.948 C123.876,21.3080018 123.808,21.6639982 123.728,22.016 C123.648,22.3680018 123.568,22.7279982 123.488,23.096 C123.408,23.4640018 123.336,23.8639978 123.272,24.296 C123.624002,24.3440002 123.967998,24.368 124.304,24.368 C124.464001,24.368 124.623999,24.364 124.784,24.356 C124.944001,24.348 125.103999,24.344 125.264,24.344 C125.424001,24.344 125.591999,24.2800006 125.768,24.152 C125.944001,24.0239994 126.103999,23.96 126.248,23.96 C126.376001,23.96 126.472,23.9999996 126.536,24.08 C126.6,24.1600004 126.632,24.2479995 126.632,24.344 C126.343999,24.4240004 126.060001,24.5079996 125.78,24.596 C125.499999,24.6840004 125.232001,24.7679996 124.976,24.848 C125.232001,24.8159998 125.503999,24.7560004 125.792,24.668 C126.080001,24.5799996 126.383998,24.4960004 126.704,24.416 C126.704,24.4960004 126.708,24.5679997 126.716,24.632 C126.724,24.6960003 126.744,24.7679996 126.776,24.848 C126.808,24.848 126.848,24.8400001 126.896,24.824 C126.992,24.7919998 127.048,24.776 127.064,24.776 C127.224001,24.8560004 127.328,24.9559994 127.376,25.076 C127.424,25.1960006 127.448,25.3279993 127.448,25.472 C127.448,25.5840006 127.432,25.6839996 127.4,25.772 C127.368,25.8600004 127.352,25.9359997 127.352,26 Z M120.992,34.856 C120.767999,34.4239978 120.648,34.0000021 120.632,33.584 C120.616,33.1679979 120.592,32.7760018 120.56,32.408 L120.344,28.76 L120.272,29.192 C120.272,30.2640054 120.308,31.2359956 120.38,32.108 C120.452,32.9800044 120.559999,33.6559976 120.704,34.136 C120.704,34.2800007 120.7,34.3759998 120.692,34.424 C120.684,34.4720002 120.68,34.5119998 120.68,34.544 C120.68,34.5760002 120.7,34.6159998 120.74,34.664 C120.78,34.7120002 120.863999,34.7759996 120.992,34.856 Z M122.36,33.56 C122.328,33.4319994 122.312,33.2960007 122.312,33.152 L122.312,31.976 C122.296,32.1360008 122.28,32.2919992 122.264,32.444 C122.248,32.5960008 122.24,32.7519992 122.24,32.912 C122.24,33.3280021 122.264,33.6479989 122.312,33.872 C122.36,34.064001 122.455999,34.2239994 122.6,34.352 C122.52,34.2559995 122.464,34.1520006 122.432,34.04 C122.416,33.9119994 122.392,33.752001 122.36,33.56 Z M122.648,34.376 C122.632,34.3599999 122.616,34.352 122.6,34.352 C122.616,34.352 122.632,34.3599999 122.648,34.376 Z M138.8,26 C138.655999,26 138.460001,26.0239998 138.212,26.072 C137.963999,26.1200002 137.716001,26.1759997 137.468,26.24 C137.219999,26.3040003 136.996001,26.3679997 136.796,26.432 C136.595999,26.4960003 136.472,26.5439998 136.424,26.576 C136.840002,26.5119997 137.223998,26.4360004 137.576,26.348 C137.928002,26.2599996 138.311998,26.216 138.728,26.216 C138.648,26.3600007 138.544001,26.4719996 138.416,26.552 C138.287999,26.6320004 138.148001,26.6919998 137.996,26.732 C137.843999,26.7720002 137.680001,26.8039999 137.504,26.828 C137.327999,26.8520001 137.144001,26.8879998 136.952,26.936 L136.784,26.72 C136.479998,26.8320006 136.248001,26.8999999 136.088,26.924 C135.927999,26.9480001 135.760001,26.96 135.584,26.96 C135.391999,26.96 135.196001,26.956 134.996,26.948 C134.795999,26.94 134.576001,26.936 134.336,26.936 C134.336,27.0160004 134.328,27.0799998 134.312,27.128 C134.680002,27.128 134.991999,27.124 135.248,27.116 C135.504001,27.108 135.815998,27.0800002 136.184,27.032 C135.831998,27.0960003 135.524001,27.1439998 135.26,27.176 C134.995999,27.2080002 134.680002,27.224 134.312,27.224 C134.248,27.5920018 134.192,27.9519982 134.144,28.304 C134.096,28.6560018 134.072,28.9999983 134.072,29.336 C134.072,29.528001 134.08,29.7519987 134.096,30.008 C134.112,30.2640013 134.132,30.5239987 134.156,30.788 C134.18,31.0520013 134.2,31.2999988 134.216,31.532 C134.232,31.7640012 134.24,31.9359994 134.24,32.048 L134.24,33.488 C134.32,33.8080016 134.551998,34.0479992 134.936,34.208 C135.320002,34.3680008 135.871996,34.448 136.592,34.448 L137.36,34.448 C137.632001,34.448 137.819999,34.4759997 137.924,34.532 C138.028001,34.5880003 138.08,34.6639995 138.08,34.76 C138.08,34.8400004 138.016001,34.884 137.888,34.892 C137.759999,34.9 137.632001,34.904 137.504,34.904 C137.039998,34.904 136.552003,34.8720003 136.04,34.808 C135.559998,34.7439997 135.088002,34.6720004 134.624,34.592 C135.088002,34.7040006 135.575997,34.8079995 136.088,34.904 C136.616003,34.9840004 137.127998,35.024 137.624,35.024 L137.84,35.024 C137.904,35.024 137.976,35.0160001 138.056,35 C138.056,35.0800004 138.06,35.1519997 138.068,35.216 C138.076,35.2800003 138.096,35.3519996 138.128,35.432 L138.32,35.384 C138.368,35.3679999 138.424,35.356 138.488,35.348 C138.552,35.34 138.6,35.3200002 138.632,35.288 C139.144003,35.3360002 139.4,35.5119985 139.4,35.816 C139.4,35.9920009 139.352,36.1359994 139.256,36.248 C139.16,36.3600006 139.040001,36.4479997 138.896,36.512 C138.751999,36.5760003 138.592001,36.6199999 138.416,36.644 C138.239999,36.6680001 138.072001,36.68 137.912,36.68 C137.351997,36.68 136.804003,36.6440004 136.268,36.572 C135.731997,36.4999996 135.208003,36.4240004 134.696,36.344 C135.144002,36.5040008 135.711997,36.6319995 136.4,36.728 C137.088003,36.8240005 137.783996,36.872 138.488,36.872 C138.311999,36.9840006 138.104001,37.0719997 137.864,37.136 C137.623999,37.2000003 137.376001,37.232 137.12,37.232 L135.392,37.016 C135.167999,36.9839998 134.996001,36.9520002 134.876,36.92 C134.755999,36.8879998 134.640001,36.8520002 134.528,36.812 C134.415999,36.7719998 134.292001,36.7280002 134.156,36.68 C134.019999,36.6319998 133.832001,36.5760003 133.592,36.512 L133.592,36.248 C133.175998,36.1359994 132.840001,35.9440014 132.584,35.672 C132.327999,35.3999986 132.128001,35.1040016 131.984,34.784 C131.839999,34.4639984 131.744,34.1400016 131.696,33.812 C131.648,33.4839984 131.624,33.1920013 131.624,32.936 C131.624,32.6639986 131.628,32.4120012 131.636,32.18 C131.644,31.9479988 131.648,31.7120012 131.648,31.472 C131.648,31.2959991 131.644,31.0720014 131.636,30.8 C131.628,30.5279986 131.616,30.2400015 131.6,29.936 C131.584,29.6319985 131.572,29.3200016 131.564,29 C131.556,28.6799984 131.552,28.3760014 131.552,28.088 C131.552,27.9119991 131.556,27.7440008 131.564,27.584 C131.572,27.4239992 131.584,27.2800006 131.6,27.152 L131.36,27.152 C131.344,27.2640006 131.336,27.3919993 131.336,27.536 L131.336,27.968 C131.336,28.4320023 131.344,28.8919977 131.36,29.348 C131.376,29.8040023 131.388,30.2239981 131.396,30.608 C131.404,30.9920019 131.416,31.3239986 131.432,31.604 C131.448,31.8840014 131.456,32.0879994 131.456,32.216 L131.456,33.368 C131.408,32.9359978 131.36,32.320004 131.312,31.52 C131.264,30.5919954 131.24,29.5680056 131.24,28.448 L131.24,28.016 C131.24,27.8399991 131.244,27.6720008 131.252,27.512 C131.26,27.3519992 131.28,27.2320004 131.312,27.152 L130.496,27.104 C130.319999,26.9919994 130.144001,26.9040003 129.968,26.84 C129.791999,26.7759997 129.632001,26.744 129.488,26.744 L129.488,26.264 C129.488,26.1679995 129.5,26.0840004 129.524,26.012 C129.548,25.9399996 129.623999,25.904 129.752,25.904 C129.784,25.904 129.863999,25.9199998 129.992,25.952 L129.992,25.664 C129.815999,25.5679995 129.672001,25.4360008 129.56,25.268 C129.447999,25.0999992 129.392,24.9280009 129.392,24.752 C129.392,24.3359979 129.687997,24.128 130.28,24.128 C130.504001,24.128 130.735999,24.1439998 130.976,24.176 C131.216001,24.2080002 131.463999,24.2319999 131.72,24.248 C131.784,23.8959982 131.84,23.5800014 131.888,23.3 C131.936,23.0199986 131.984,22.7480013 132.032,22.484 C132.08,22.2199987 132.136,21.9560013 132.2,21.692 C132.264,21.4279987 132.344,21.1520014 132.44,20.864 C132.584001,20.5439984 132.696,20.1960019 132.776,19.82 C132.856,19.4439981 132.912,19.0720018 132.944,18.704 L133.448,18.728 C133.528,18.728 133.596,18.7519998 133.652,18.8 C133.708,18.8480002 133.736,18.9599991 133.736,19.136 C133.736,19.2800007 133.712,19.4719988 133.664,19.712 L133.952,19.784 C134.080001,19.3519978 134.235999,19.0000014 134.42,18.728 C134.604001,18.4559986 134.783999,18.32 134.96,18.32 C135.232001,18.32 135.4,18.6639966 135.464,19.352 L135.464,19.784 C135.464,20.2000021 135.436,20.5879982 135.38,20.948 C135.324,21.3080018 135.256,21.6639982 135.176,22.016 C135.096,22.3680018 135.016,22.7279982 134.936,23.096 C134.856,23.4640018 134.784,23.8639978 134.72,24.296 C135.072002,24.3440002 135.415998,24.368 135.752,24.368 C135.912001,24.368 136.071999,24.364 136.232,24.356 C136.392001,24.348 136.551999,24.344 136.712,24.344 C136.872001,24.344 137.039999,24.2800006 137.216,24.152 C137.392001,24.0239994 137.551999,23.96 137.696,23.96 C137.824001,23.96 137.92,23.9999996 137.984,24.08 C138.048,24.1600004 138.08,24.2479995 138.08,24.344 C137.791999,24.4240004 137.508001,24.5079996 137.228,24.596 C136.947999,24.6840004 136.680001,24.7679996 136.424,24.848 C136.680001,24.8159998 136.951999,24.7560004 137.24,24.668 C137.528001,24.5799996 137.831998,24.4960004 138.152,24.416 C138.152,24.4960004 138.156,24.5679997 138.164,24.632 C138.172,24.6960003 138.192,24.7679996 138.224,24.848 C138.256,24.848 138.296,24.8400001 138.344,24.824 C138.44,24.7919998 138.496,24.776 138.512,24.776 C138.672001,24.8560004 138.776,24.9559994 138.824,25.076 C138.872,25.1960006 138.896,25.3279993 138.896,25.472 C138.896,25.5840006 138.88,25.6839996 138.848,25.772 C138.816,25.8600004 138.8,25.9359997 138.8,26 Z M132.44,34.856 C132.215999,34.4239978 132.096,34.0000021 132.08,33.584 C132.064,33.1679979 132.04,32.7760018 132.008,32.408 L131.792,28.76 L131.72,29.192 C131.72,30.2640054 131.756,31.2359956 131.828,32.108 C131.9,32.9800044 132.007999,33.6559976 132.152,34.136 C132.152,34.2800007 132.148,34.3759998 132.14,34.424 C132.132,34.4720002 132.128,34.5119998 132.128,34.544 C132.128,34.5760002 132.148,34.6159998 132.188,34.664 C132.228,34.7120002 132.311999,34.7759996 132.44,34.856 Z M133.808,33.56 C133.776,33.4319994 133.76,33.2960007 133.76,33.152 L133.76,31.976 C133.744,32.1360008 133.728,32.2919992 133.712,32.444 C133.696,32.5960008 133.688,32.7519992 133.688,32.912 C133.688,33.3280021 133.712,33.6479989 133.76,33.872 C133.808,34.064001 133.903999,34.2239994 134.048,34.352 C133.968,34.2559995 133.912,34.1520006 133.88,34.04 C133.864,33.9119994 133.84,33.752001 133.808,33.56 Z M134.096,34.376 C134.08,34.3599999 134.064,34.352 134.048,34.352 C134.064,34.352 134.08,34.3599999 134.096,34.376 Z M149.936,38.432 C149.327997,38.640001 148.864002,38.7559999 148.544,38.78 C148.223998,38.8040001 147.944001,38.8239999 147.704,38.84 C146.807996,38.84 146.000004,38.6720017 145.28,38.336 C144.559996,37.9999983 143.944003,37.5440029 143.432,36.968 C142.919997,36.3919971 142.524001,35.7160039 142.244,34.94 C141.963999,34.1639961 141.824,33.3360044 141.824,32.456 C141.824,31.9439974 141.872,31.4120028 141.968,30.86 C142.064,30.3079972 142.207999,29.7640027 142.4,29.228 C142.592001,28.6919973 142.839998,28.1920023 143.144,27.728 C143.432001,27.2639977 143.775998,26.8480018 144.176,26.48 C143.759998,26.8160017 143.408001,27.2159977 143.12,27.68 C142.815998,28.1440023 142.560001,28.6439973 142.352,29.18 C142.143999,29.7160027 141.992,30.2679972 141.896,30.836 C141.8,31.4040028 141.752,31.9519974 141.752,32.48 C141.752,33.1520034 141.859999,33.8679962 142.076,34.628 C142.292001,35.3880038 142.639998,36.0919968 143.12,36.74 C143.600002,37.3880032 144.219996,37.9279978 144.98,38.36 C145.740004,38.7920022 146.663995,39.008 147.752,39.008 C148.264003,39.008 148.799997,38.9360007 149.36,38.792 C148.751997,39.192002 148.072004,39.392 147.32,39.392 C146.711997,39.392 146.140003,39.3000009 145.604,39.116 C145.067997,38.9319991 144.572002,38.6760016 144.116,38.348 C143.659998,38.0199984 143.248002,37.6320022 142.88,37.184 C142.511998,36.7359978 142.200001,36.2560026 141.944,35.744 L142.16,35.552 C141.887999,35.0079973 141.692001,34.4640027 141.572,33.92 C141.451999,33.3759973 141.392,32.8240028 141.392,32.264 C141.392,31.4479959 141.507999,30.6640038 141.74,29.912 C141.972001,29.1599962 142.279998,28.4480034 142.664,27.776 L143.24,26.984 C143.336,26.8079991 143.475999,26.6320009 143.66,26.456 C143.844001,26.2799991 144.047999,26.1080008 144.272,25.94 C144.496001,25.7719992 144.731999,25.6200007 144.98,25.484 C145.228001,25.3479993 145.463999,25.2240006 145.688,25.112 C146.264003,24.8239986 146.839997,24.5640012 147.416,24.332 C147.992003,24.0999988 148.663996,23.9280006 149.432,23.816 L149.336,23.744 C147.863993,23.8880007 146.616005,24.2439972 145.592,24.812 C144.567995,25.3800028 143.736003,26.0719959 143.096,26.888 C142.455997,27.7040041 141.992001,28.5959952 141.704,29.564 C141.415999,30.5320048 141.272,31.4799954 141.272,32.408 C141.272,32.9040025 141.316,33.4039975 141.404,33.908 C141.492,34.4120025 141.623999,34.9119975 141.8,35.408 C141.399998,34.4479952 141.2,33.4320054 141.2,32.36 C141.2,31.3039947 141.375998,30.2560052 141.728,29.216 C142.080002,28.1759948 142.631996,27.2160044 143.384,26.336 C144.344005,25.4559956 145.391994,24.7800024 146.528,24.308 C147.664006,23.8359976 148.759995,23.6 149.816,23.6 C150.152002,23.6 150.495998,23.6559994 150.848,23.768 C151.200002,23.8800006 151.519999,24.0519988 151.808,24.284 C152.096001,24.5160012 152.331999,24.8159982 152.516,25.184 C152.700001,25.5520018 152.792,25.9999974 152.792,26.528 C152.792,26.9600022 152.688001,27.4879969 152.48,28.112 C152.271999,28.7360031 151.964002,29.3399971 151.556,29.924 C151.147998,30.5080029 150.640003,31.003998 150.032,31.412 C149.423997,31.820002 148.720004,32.024 147.92,32.024 L147.128,32.024 C146.535997,31.8959994 145.996002,31.7480008 145.508,31.58 C145.019998,31.4119992 144.560002,31.2800005 144.128,31.184 C144.064,31.4400013 144.028,31.6839988 144.02,31.916 C144.012,32.1480012 144.008,32.3759989 144.008,32.6 C144.008,33.0640023 144.059999,33.5159978 144.164,33.956 C144.268001,34.3960022 144.431999,34.7999982 144.656,35.168 C144.880001,35.5360018 145.163998,35.8439988 145.508,36.092 C145.852002,36.3400012 146.271998,36.4959997 146.768,36.56 C147.072002,36.6240003 147.335999,36.66 147.56,36.668 C147.784001,36.676 147.971999,36.684 148.124,36.692 C148.276001,36.7 148.388,36.7239998 148.46,36.764 C148.532,36.8040002 148.568,36.8799994 148.568,36.992 C148.407999,37.0400002 148.244001,37.0719999 148.076,37.088 C147.907999,37.1040001 147.736001,37.112 147.56,37.112 C146.999997,37.112 146.496002,37.0200009 146.048,36.836 C145.599998,36.6519991 145.216002,36.4400012 144.896,36.2 C145.264002,36.5680018 145.703997,36.8279992 146.216,36.98 C146.728003,37.1320008 147.231998,37.208 147.728,37.208 C148.000001,37.208 148.279999,37.1840002 148.568,37.136 C148.536,37.2320005 148.52,37.2879999 148.52,37.304 C148.52,37.4000005 148.56,37.4639998 148.64,37.496 C148.704,37.4799999 148.815999,37.4360004 148.976,37.364 C149.136001,37.2919996 149.299999,37.2200004 149.468,37.148 C149.636001,37.0759996 149.799999,37.0120003 149.96,36.956 C150.120001,36.8999997 150.232,36.872 150.296,36.872 C150.376,36.872 150.448,36.8839999 150.512,36.908 C150.576,36.9320001 150.608,37.0239992 150.608,37.184 C150.608,37.3440008 150.552001,37.5359989 150.44,37.76 C150.327999,37.9840011 150.160001,38.2079989 149.936,38.432 Z M146.624,28.928 L147.152,29.024 C147.328001,29.0560002 147.487999,29.072 147.632,29.072 C147.792001,29.072 147.979999,29.0200005 148.196,28.916 C148.412001,28.8119995 148.627999,28.664001 148.844,28.472 C149.060001,28.279999 149.251999,28.0400014 149.42,27.752 C149.588001,27.4639986 149.712,27.1360018 149.792,26.768 L149.84,26.624 C149.615999,26.624 149.280002,26.6799994 148.832,26.792 C148.383998,26.9040006 147.920002,27.0519991 147.44,27.236 C146.959998,27.4200009 146.512002,27.6359988 146.096,27.884 C145.679998,28.1320012 145.392001,28.3999986 145.232,28.688 C145.472001,28.7360002 145.707999,28.7799998 145.94,28.82 C146.172001,28.8600002 146.399999,28.8959998 146.624,28.928 Z M145.52,30.704 C145.552,30.6719998 145.572,30.6240003 145.58,30.56 C145.588,30.4959997 145.592,30.4480002 145.592,30.416 L144.464,30.008 L144.344,30.344 L145.52,30.704 Z M144.848,36.152 C144.607999,35.943999 144.416001,35.7040014 144.272,35.432 C144.336,35.5440006 144.416,35.6559994 144.512,35.768 L144.848,36.152 Z M159.104,38.264 C158.943999,38.2960002 158.768001,38.312 158.576,38.312 L157.88,38.312 C157.463998,38.312 157.172001,38.3599995 157.004,38.456 C156.835999,38.5520005 156.736,38.6 156.704,38.6 L156.608,38.168 L156.608,37.736 L156.488,35.48 C156.456,35.0479978 156.368001,34.5840025 156.224,34.088 C156.079999,33.5919975 155.968,33.0880026 155.888,32.576 C155.84,32.2399983 155.8,31.9200015 155.768,31.616 L155.672,30.68 C155.64,30.3599984 155.604,30.0320017 155.564,29.696 C155.524,29.3599983 155.464,29.0000019 155.384,28.616 C155.384,28.5199995 155.388,28.4240005 155.396,28.328 C155.404,28.2319995 155.408,28.1360005 155.408,28.04 C155.408,27.5439975 155.368,27.0560024 155.288,26.576 C155.208,26.0959976 155.096001,25.6240023 154.952,25.16 C155.064001,25.1119998 155.168,25.0680002 155.264,25.028 C155.36,24.9879998 155.448,24.968 155.528,24.968 C155.608,24.968 155.696,25.0599991 155.792,25.244 C155.888,25.4280009 155.991999,25.8079971 156.104,26.384 C156.136,26.384 156.184,26.3720001 156.248,26.348 C156.312,26.3239999 156.36,26.312 156.392,26.312 C156.376,26.0399986 156.336,25.7480016 156.272,25.436 C156.208,25.1239984 156.144,24.8240014 156.08,24.536 C156.016,24.2479986 155.956,23.9880012 155.9,23.756 C155.844,23.5239988 155.816,23.3360007 155.816,23.192 C155.816,23.1599998 155.82,23.1200002 155.828,23.072 C155.836,23.0239998 155.872,23 155.936,23 C156.016,23 156.119999,23.0879991 156.248,23.264 C156.376001,23.4400009 156.511999,23.6639986 156.656,23.936 C156.800001,24.2080014 156.939999,24.4999984 157.076,24.812 C157.212001,25.1240016 157.335999,25.4159986 157.448,25.688 C157.880002,24.8719959 158.371997,24.2520021 158.924,23.828 C159.476003,23.4039979 160.199996,23.192 161.096,23.192 C161.752003,23.192 162.287998,23.2679992 162.704,23.42 C163.120002,23.5720008 163.443999,23.7399991 163.676,23.924 C163.908001,24.1080009 164.064,24.2799992 164.144,24.44 L164.288,24.68 C164.288,24.7760005 164.24,24.8399998 164.144,24.872 C163.727998,24.471998 163.256003,24.168001 162.728,23.96 C162.199997,23.751999 161.656003,23.648 161.096,23.648 C160.551997,23.648 160.144001,23.7199993 159.872,23.864 C159.615999,23.9920006 159.344001,24.151999 159.056,24.344 C159.360002,24.151999 159.639999,24.0000006 159.896,23.888 C160.168001,23.7759994 160.559997,23.72 161.072,23.72 C161.632003,23.72 162.167997,23.8279989 162.68,24.044 C163.192003,24.2600011 163.631998,24.5359983 164,24.872 C163.92,24.9040002 163.852,24.9399998 163.796,24.98 C163.74,25.0200002 163.712,25.0799996 163.712,25.16 C163.792,25.16 163.88,25.2119995 163.976,25.316 C164.072,25.4200005 164.16,25.5439993 164.24,25.688 C164.32,25.8320007 164.388,25.9799992 164.444,26.132 C164.5,26.2840008 164.528,26.4079995 164.528,26.504 C164.528,26.7760014 164.424001,26.912 164.216,26.912 C164.055999,26.912 163.864001,26.8560006 163.64,26.744 C163.592,26.7279999 163.492001,26.6400008 163.34,26.48 C163.187999,26.3199992 163.000001,26.1560008 162.776,25.988 C162.551999,25.8199992 162.296001,25.6640007 162.008,25.52 C161.719999,25.3759993 161.400002,25.304 161.048,25.304 C160.759999,25.304 160.508001,25.3639994 160.292,25.484 C160.075999,25.6040006 159.880001,25.763999 159.704,25.964 C159.527999,26.164001 159.368001,26.3919987 159.224,26.648 L158.912,27.224 C159.152001,26.7919978 159.415999,26.4000018 159.704,26.048 C160.024002,25.6319979 160.423998,25.424 160.904,25.424 C161.320002,25.424 161.703998,25.5159991 162.056,25.7 C162.408002,25.8840009 162.695999,26.1119986 162.92,26.384 C162.647999,26.2719994 162.328002,26.1600006 161.96,26.048 C161.591998,25.9359994 161.240002,25.88 160.904,25.88 C160.727999,25.88 160.576001,25.9199996 160.448,26 C160.319999,26.0800004 160.212,26.1799994 160.124,26.3 C160.036,26.4200006 159.956,26.5519993 159.884,26.696 C159.812,26.8400007 159.736,26.9759994 159.656,27.104 L159.344,27.152 C159.071999,27.6160023 158.852001,28.1559969 158.684,28.772 C158.515999,29.3880031 158.432,30.0319966 158.432,30.704 C158.432,31.104002 158.452,31.4639984 158.492,31.784 C158.532,32.1040016 158.592,32.4319983 158.672,32.768 L158.96,33.512 L158.912,32.816 C158.88,32.2719973 158.848,31.7880021 158.816,31.364 C158.784,30.9399979 158.768,30.4720026 158.768,29.96 C158.8,29.4959977 158.864,29.0560021 158.96,28.64 C159.04,28.2879982 159.159999,27.9600015 159.32,27.656 C159.127999,28.0400019 159,28.4799975 158.936,28.976 C158.856,29.5200027 158.816,30.095997 158.816,30.704 C158.816,31.1840024 158.84,31.6399978 158.888,32.072 C158.936,32.5040022 158.996,32.9359978 159.068,33.368 C159.14,33.8000022 159.216,34.2439977 159.296,34.7 C159.376,35.1560023 159.44,35.6559973 159.488,36.2 L159.56,36.656 L159.704,38.024 L159.104,38.264 Z M175.592,25.592 C174.871996,25.7200006 174.176003,25.8519993 173.504,25.988 C172.831997,26.1240007 172.112004,26.2479994 171.344,26.36 L171.344,26.384 C172.032003,26.3359998 172.719997,26.2360008 173.408,26.084 C174.096003,25.9319992 174.799996,25.8400002 175.52,25.808 C175.44,26.000001 175.236002,26.1639993 174.908,26.3 C174.579998,26.4360007 174.288001,26.504 174.032,26.504 C173.775999,26.504 173.648,26.4400006 173.648,26.312 C173.263998,26.4720008 172.880002,26.5679998 172.496,26.6 L171.344,26.696 L171.344,26.888 C171.728002,26.8239997 172.103998,26.7680002 172.472,26.72 C172.792002,26.6879998 173.119998,26.6400003 173.456,26.576 C172.751996,26.7360008 172.048004,26.8639995 171.344,26.96 L171.344,28.832 C171.296,29.6480041 171.272,30.4799958 171.272,31.328 C171.272,32.1760042 171.248,33.0199958 171.2,33.86 C171.152,34.7000042 171.056001,35.5319959 170.912,36.356 C170.767999,37.1800041 170.528002,37.9839961 170.192,38.768 C170.047999,39.2000022 169.872001,39.6359978 169.664,40.076 C169.455999,40.5160022 169.244001,40.9159982 169.028,41.276 C168.811999,41.6360018 168.604001,41.9279989 168.404,42.152 C168.203999,42.3760011 168.032001,42.488 167.888,42.488 C167.824,42.488 167.776,42.4480004 167.744,42.368 C168.000001,41.9999982 168.271999,41.616002 168.56,41.216 C168.848001,40.815998 169.103999,40.3840023 169.328,39.92 C169.504001,39.4719978 169.655999,39.0400021 169.784,38.624 C169.912001,38.2079979 170.031999,37.7760022 170.144,37.328 C169.887999,38.2720047 169.544002,39.1559959 169.112,39.98 C168.679998,40.8040041 168.200003,41.5519966 167.672,42.224 C167.64,42.1439996 167.6,42.0880002 167.552,42.056 C167.504,42.0239998 167.424001,42.008 167.312,42.008 L166.88,42.656 C166.559998,42.9920017 166.304001,43.16 166.112,43.16 C165.983999,43.16 165.888,43.0880007 165.824,42.944 C165.76,42.7999993 165.728,42.6080012 165.728,42.368 L165.872,41.792 L166.16,41.432 C166.512002,41.0159979 166.823999,40.6160019 167.096,40.232 C167.368001,39.8479981 167.603999,39.4440021 167.804,39.02 C168.004001,38.5959979 168.179999,38.1360025 168.332,37.64 C168.484001,37.1439975 168.623999,36.5680033 168.752,35.912 C168.672,36.2960019 168.572001,36.687998 168.452,37.088 C168.331999,37.488002 168.200001,37.8719982 168.056,38.24 C167.911999,38.6080018 167.756001,38.9479984 167.588,39.26 C167.419999,39.5720016 167.232001,39.831999 167.024,40.04 L166.016,41.288 C166.144001,40.9039981 166.303999,40.5480016 166.496,40.22 C166.688001,39.8919984 166.887999,39.5440018 167.096,39.176 C167.304001,38.8079982 167.503999,38.4000022 167.696,37.952 C167.888001,37.5039978 168.047999,36.9680031 168.176,36.344 L168.392,36.32 C168.520001,35.4559957 168.604,34.6040042 168.644,33.764 C168.684,32.9239958 168.704,32.0640044 168.704,31.184 C168.704,30.5599969 168.7,29.9280032 168.692,29.288 C168.684,28.6479968 168.672,27.9920034 168.656,27.32 C168.624,27.3360001 168.584,27.344 168.536,27.344 L168.416,27.344 C168.432,28.1920042 168.46,29.015996 168.5,29.816 C168.54,30.616004 168.56,31.4079961 168.56,32.192 C168.56,32.8640034 168.528,33.5279967 168.464,34.184 C168.416,34.8080031 168.320001,35.4319969 168.176,36.056 C168.304001,35.4959972 168.384,34.9280029 168.416,34.352 C168.464,33.759997 168.488,33.160003 168.488,32.552 C168.488,31.7199958 168.464,30.8720043 168.416,30.008 C168.368,29.1439957 168.336,28.2560046 168.32,27.344 C168.224,27.3600001 168.112001,27.372 167.984,27.38 C167.855999,27.388 167.656001,27.392 167.384,27.392 C167.015998,27.2479993 166.656002,27.176 166.304,27.176 L166.304,27.08 C166.304,27.0159997 166.3,26.9480004 166.292,26.876 C166.284,26.8039996 166.28,26.7280004 166.28,26.648 C166.28,26.455999 166.367999,26.36 166.544,26.36 L166.736,26.096 C166.511999,26.0159996 166.344001,25.8880009 166.232,25.712 C166.119999,25.5359991 166.064,25.3600009 166.064,25.184 C166.064,24.9439988 166.143999,24.7760005 166.304,24.68 C166.464001,24.5839995 166.663999,24.5160002 166.904,24.476 C167.144001,24.4359998 167.399999,24.42 167.672,24.428 C167.944001,24.436 168.191999,24.4240002 168.416,24.392 C168.48,23.7679969 168.587999,23.1080035 168.74,22.412 C168.892001,21.7159965 169.119998,21.0320034 169.424,20.36 C169.728002,19.6879966 170.123998,19.056003 170.612,18.464 C171.100002,17.871997 171.703996,17.3680021 172.424,16.952 C173.112003,16.5359979 173.827996,16.2840004 174.572,16.196 C175.316004,16.1079996 176.031997,16.064 176.72,16.064 L177.176,16.064 C177.320001,16.064 177.463999,16.0719999 177.608,16.088 L177.632,16.592 C177.632,16.6560003 177.616,16.7119998 177.584,16.76 C177.552,16.8080002 177.484001,16.8439999 177.38,16.868 C177.275999,16.8920001 177.120001,16.9119999 176.912,16.928 C176.703999,16.9440001 176.432002,16.952 176.096,16.952 C176.096,16.9840002 176.1,17.0279997 176.108,17.084 C176.116,17.1400003 176.136,17.168 176.168,17.168 C176.840003,17.2160002 177.347998,17.3599988 177.692,17.6 C178.036002,17.8400012 178.208,18.0239994 178.208,18.152 C178.208,18.2960007 178.052002,18.4079996 177.74,18.488 C177.427998,18.5680004 177.044002,18.6519996 176.588,18.74 C176.131998,18.8280004 175.644003,18.9359994 175.124,19.064 C174.603997,19.1920006 174.136002,19.3759988 173.72,19.616 C172.407993,20.5280046 171.656001,22.0239896 171.464,24.104 C171.816002,24.0719998 172.171998,24.0240003 172.532,23.96 C172.892002,23.8959997 173.239998,23.864 173.576,23.864 C173.704001,23.864 173.847999,23.8240004 174.008,23.744 C174.168001,23.6639996 174.311999,23.624 174.44,23.624 C174.52,23.624 174.58,23.6439998 174.62,23.684 C174.66,23.7240002 174.72,23.8079994 174.8,23.936 C174.415998,24.144001 174.048002,24.2879996 173.696,24.368 C173.856001,24.3359998 174.031999,24.3000002 174.224,24.26 C174.416001,24.2199998 174.607999,24.1600004 174.8,24.08 C174.832,24.1600004 174.856,24.2319997 174.872,24.296 C174.888,24.3600003 174.912,24.4079998 174.944,24.44 C174.96,24.44 174.984,24.4320001 175.016,24.416 C175.08,24.3839998 175.128,24.368 175.16,24.368 C175.336001,24.4320003 175.468,24.5439992 175.556,24.704 C175.644,24.8640008 175.688,25.0239992 175.688,25.184 C175.688,25.2640004 175.684,25.3399996 175.676,25.412 C175.668,25.4840004 175.64,25.5439998 175.592,25.592 Z M168.968,34.736 C169.032,34.3839982 169.092,34.0200019 169.148,33.644 C169.204,33.2679981 169.232,32.8880019 169.232,32.504 C169.232,31.895997 169.192,31.2800031 169.112,30.656 C169.048,30.0799971 169,29.5120028 168.968,28.952 C168.984,29.4800026 169,29.9999974 169.016,30.512 C169.048,31.0720028 169.064,31.6239973 169.064,32.168 C169.064,32.760003 169.044,33.3399972 169.004,33.908 C168.964,34.4760028 168.904,35.0399972 168.824,35.6 L168.824,35.624 L168.968,34.736 Z M170.696,33.68 C170.648,34.7840055 170.488001,35.9279941 170.216,37.112 C170.488001,35.9759943 170.656,34.8400057 170.72,33.704 C170.8,32.5999945 170.84,31.5120054 170.84,30.44 C170.808,31.5120054 170.76,32.5919946 170.696,33.68 Z M171.44,24.512 C171.584001,24.5600002 171.751999,24.584 171.944,24.584 C172.168001,24.584 172.395999,24.5600002 172.628,24.512 C172.860001,24.4639998 173.079999,24.4160002 173.288,24.368 C172.967998,24.4000002 172.660001,24.4319998 172.364,24.464 C172.067999,24.4960002 171.760002,24.512 171.44,24.512 Z M173.648,26.528 C173.584,26.5440001 173.528,26.5599999 173.48,26.576 C173.528,26.5599999 173.584,26.5440001 173.648,26.528 Z M184.568,35.96 C184.472,35.96 184.376,36.0079995 184.28,36.104 C183.943998,36.2320006 183.596002,36.3399996 183.236,36.428 C182.875998,36.5160004 182.504002,36.56 182.12,36.56 C181.031995,36.56 180.216003,36.2440032 179.672,35.612 C179.127997,34.9799968 178.856,34.064006 178.856,32.864 C178.856,32.2879971 178.88,31.7120029 178.928,31.136 C178.976,30.5759972 179.008,30.0560024 179.024,29.576 C178.976,30.0720025 178.92,30.5679975 178.856,31.064 C178.776,31.5920026 178.736,32.1439971 178.736,32.72 C178.736,33.0080014 178.764,33.3759978 178.82,33.824 C178.876,34.2720022 179.015999,34.7079979 179.24,35.132 C179.464001,35.5560021 179.807998,35.9239984 180.272,36.236 C180.736002,36.5480016 181.375996,36.704 182.192,36.704 C182.576002,36.704 182.947998,36.6600004 183.308,36.572 C183.668002,36.4839996 184.015998,36.3760006 184.352,36.248 C184.127999,36.5200014 183.828002,36.7359992 183.452,36.896 C183.075998,37.0560008 182.632003,37.136 182.12,37.136 C181.463997,37.136 180.828003,37.0000014 180.212,36.728 C179.595997,36.4559986 179.128002,36.0000032 178.808,35.36 L178.952,35.096 C178.663999,34.5839974 178.504,34.124002 178.472,33.716 C178.44,33.307998 178.408,32.904002 178.376,32.504 L178.784,28.304 C178.864,27.5839964 178.92,26.8640036 178.952,26.144 L178.88,26.096 C178.751999,26.8480038 178.648,27.5679966 178.568,28.256 C178.488,28.9280034 178.424,29.5919967 178.376,30.248 L178.376,29.624 C178.472,28.8879963 178.56,28.1640036 178.64,27.452 C178.72,26.7399964 178.823999,26.0160037 178.952,25.28 C179.080001,24.5439963 179.243999,23.776004 179.444,22.976 C179.644001,22.175996 179.911998,21.3200046 180.248,20.408 C180.696002,19.799997 180.96,19.200003 181.04,18.608 C181.088,18.608 181.136,18.6159999 181.184,18.632 C181.232,18.6480001 181.327999,18.656 181.472,18.656 C181.568,18.656 181.652,18.6759998 181.724,18.716 C181.796,18.7560002 181.832,18.8399994 181.832,18.968 C181.832,19.1120007 181.784,19.3279986 181.688,19.616 C181.72,19.616 181.768,19.6279999 181.832,19.652 C181.896,19.6760001 181.944,19.688 181.976,19.688 C182.200001,19.3039981 182.403999,18.9760014 182.588,18.704 C182.772001,18.4319986 182.951999,18.296 183.128,18.296 C183.240001,18.296 183.34,18.3639993 183.428,18.5 C183.516,18.6360007 183.56,18.8559985 183.56,19.16 C183.528,19.7360029 183.436001,20.2799974 183.284,20.792 C183.131999,21.3040026 182.968001,21.7999976 182.792,22.28 C182.615999,22.7600024 182.444001,23.2479975 182.276,23.744 C182.107999,24.2400025 181.984,24.7599973 181.904,25.304 C181.808,25.9280031 181.712,26.5639968 181.616,27.212 C181.52,27.8600032 181.432,28.5039968 181.352,29.144 C181.272,29.7840032 181.196,30.399997 181.124,30.992 C181.052,31.584003 181,32.1359974 180.968,32.648 C180.968,33.1120023 181.039999,33.5919975 181.184,34.088 C181.264,34.2160006 181.336,34.3079997 181.4,34.364 C181.464,34.4200003 181.575999,34.448 181.736,34.448 C181.928001,34.448 182.139999,34.4240002 182.372,34.376 C182.604001,34.3279998 182.807999,34.304 182.984,34.304 C183.096001,34.304 183.176,34.3199998 183.224,34.352 C183.272,34.3840002 183.312,34.4399996 183.344,34.52 C183.119999,34.6480006 182.880001,34.7439997 182.624,34.808 C182.367999,34.8720003 182.128001,34.904 181.904,34.904 L181.4,34.904 C181.576001,34.9360002 181.799999,34.952 182.072,34.952 C182.488002,34.952 182.911998,34.856001 183.344,34.664 C183.344,34.8080007 183.392,34.9279995 183.488,35.024 C183.536,35.0079999 183.647999,34.9520005 183.824,34.856 C184.000001,34.7599995 184.151999,34.712 184.28,34.712 C184.664002,34.712 184.856,34.8719984 184.856,35.192 C184.856,35.2400002 184.84,35.3119995 184.808,35.408 C184.776,35.5040005 184.696001,35.6879986 184.568,35.96 Z M178.208,32.744 C178.208,32.6319994 178.212,32.4880009 178.22,32.312 C178.228,32.1359991 178.24,31.9600009 178.256,31.784 L178.304,31.232 C178.32,31.039999 178.336,30.8720007 178.352,30.728 C178.336,30.9680012 178.324,31.2679982 178.316,31.628 C178.308,31.9880018 178.304,32.2559991 178.304,32.432 L178.304,33.392 C178.304,33.5200006 178.308,33.6559993 178.316,33.8 C178.324,33.9440007 178.336,34.0799994 178.352,34.208 C178.288,33.9519987 178.248,33.7000012 178.232,33.452 C178.216,33.2039988 178.208,32.9680011 178.208,32.744 Z M180.56,32.648 C180.56,32.2799982 180.584,31.9200018 180.632,31.568 C180.68,31.2159982 180.72,30.8560018 180.752,30.488 C180.672,30.8560018 180.612,31.2159982 180.572,31.568 C180.532,31.9200018 180.496,32.2799982 180.464,32.648 L180.464,32.984 C180.464,33.0960006 180.472,33.2159994 180.488,33.344 L180.488,33.176 C180.488,33.0959996 180.496,33.0080005 180.512,32.912 C180.528,32.8159995 180.544,32.7280004 180.56,32.648 Z M178.352,30.704 L178.352,30.632 C178.368,30.6159999 178.376,30.6000001 178.376,30.584 C178.376,30.6480003 178.368,30.6879999 178.352,30.704 Z M186.344,44.456 C186.472001,44.5840006 186.691998,44.6839996 187.004,44.756 C187.316002,44.8280004 187.615999,44.864 187.904,44.864 C188.432003,44.864 188.935998,44.6920017 189.416,44.348 C189.896002,44.0039983 190.355998,43.536003 190.796,42.944 C191.236002,42.351997 191.655998,41.6720038 192.056,40.904 C192.456002,40.1359962 192.839998,39.3280042 193.208,38.48 L193.184,38.48 C192.863998,39.1840035 192.520002,39.9079963 192.152,40.652 C191.783998,41.3960037 191.384002,42.0759969 190.952,42.692 C190.519998,43.3080031 190.052003,43.811998 189.548,44.204 C189.043997,44.596002 188.504003,44.792 187.928,44.792 C187.463998,44.792 187.008002,44.6560014 186.56,44.384 C186.800001,44.3039996 187.023999,44.264 187.232,44.264 C187.296,44.264 187.407999,44.2799998 187.568,44.312 C187.824001,44.312 188.039999,44.3040001 188.216,44.288 C188.392001,44.2719999 188.559999,44.2360003 188.72,44.18 C188.880001,44.1239997 189.031999,44.0360006 189.176,43.916 C189.320001,43.7959994 189.479999,43.640001 189.656,43.448 L189.944,43.52 C190.408002,42.911997 190.843998,42.2560035 191.252,41.552 C191.660002,40.8479965 192.063998,40.1360036 192.464,39.416 L192.896,38.456 L192.68,38.408 L192.32,39.272 C191.951998,39.9920036 191.568002,40.6999965 191.168,41.396 C190.767998,42.0920035 190.312003,42.7279971 189.8,43.304 C190.360003,42.6159966 190.871998,41.8480042 191.336,41 C191.800002,40.1519958 192.223998,39.2720046 192.608,38.36 L192.464,38.12 C192.384,37.7519982 192.264001,37.3920018 192.104,37.04 C191.991999,36.7679986 191.864001,36.4880014 191.72,36.2 C192.008001,36.8880034 192.207999,37.5519968 192.32,38.192 C192.159999,38.1439998 192.028001,38.0440008 191.924,37.892 C191.819999,37.7399992 191.724,37.560001 191.636,37.352 C191.548,37.143999 191.468,36.9280011 191.396,36.704 C191.324,36.4799989 191.232001,36.2560011 191.12,36.032 L191.24,35.816 C190.983999,35.415998 190.708001,34.920003 190.412,34.328 C190.115999,33.735997 189.804002,33.1280031 189.476,32.504 C189.147998,31.8799969 188.816002,31.272003 188.48,30.68 C188.143998,30.087997 187.816002,29.592002 187.496,29.192 L187.424,29.264 L190.424,34.664 C189.815997,33.6399949 189.168003,32.6000053 188.48,31.544 C187.791997,30.4879947 187.176003,29.3200064 186.632,28.04 C186.632,27.9279994 186.616,27.7800009 186.584,27.596 C186.552,27.4119991 186.516,27.220001 186.476,27.02 C186.436,26.819999 186.392,26.620001 186.344,26.42 C186.296,26.219999 186.248,26.0400008 186.2,25.88 L186.824,25.688 C186.904,25.688 186.976,25.7239996 187.04,25.796 C187.104,25.8680004 187.16,26.0159989 187.208,26.24 C187.288,26.24 187.36,26.1760006 187.424,26.048 C187.488,25.9199994 187.556,25.7760008 187.628,25.616 C187.7,25.4559992 187.78,25.3120006 187.868,25.184 C187.956,25.0559994 188.071999,24.992 188.216,24.992 C188.424001,24.992 188.611999,25.1319986 188.78,25.412 C188.948001,25.6920014 189.107999,26.031998 189.26,26.432 C189.412001,26.832002 189.575999,27.2519978 189.752,27.692 C189.928001,28.1320022 190.135999,28.5119984 190.376,28.832 C190.632001,29.2640022 190.891999,29.6879979 191.156,30.104 C191.420001,30.5200021 191.663999,30.9599977 191.888,31.424 C192.128001,32.0640032 192.439998,32.7079968 192.824,33.356 C193.208002,34.0040032 193.511999,34.6799965 193.736,35.384 C194.120002,34.1039936 194.427999,32.964005 194.66,31.964 C194.892001,30.963995 195.071999,29.968005 195.2,28.976 C195.376001,28.4639974 195.527999,27.8880032 195.656,27.248 C195.784001,26.6079968 195.848,25.984003 195.848,25.376 L196.376,25.4 C196.456,25.4 196.528,25.4359996 196.592,25.508 C196.656,25.5800004 196.688,25.7519986 196.688,26.024 C196.688,26.1040004 196.684,26.1879996 196.676,26.276 C196.668,26.3640004 196.656,26.4719994 196.64,26.6 L196.856,26.6 C197.000001,26.0719974 197.167999,25.6480016 197.36,25.328 C197.552001,25.0079984 197.735999,24.848 197.912,24.848 C198.040001,24.848 198.163999,24.9839986 198.284,25.256 C198.404001,25.5280014 198.464,25.9839968 198.464,26.624 C198.464,27.6960054 198.336001,28.8559938 198.08,30.104 C197.823999,31.3520062 197.560001,32.5839939 197.288,33.8 C196.839998,35.4320082 196.312003,36.9999925 195.704,38.504 C195.095997,40.0080075 194.328005,41.5359922 193.4,43.088 C193.111999,43.5200022 192.788002,43.9719976 192.428,44.444 C192.067998,44.9160024 191.652002,45.3439981 191.18,45.728 C190.707998,46.1120019 190.172003,46.4279988 189.572,46.676 C188.971997,46.9240012 188.288004,47.048 187.52,47.048 C186.959997,47.048 186.580001,46.9760007 186.38,46.832 C186.179999,46.6879993 186.08,46.5760004 186.08,46.496 C186.08,46.4479998 186.096,46.3920003 186.128,46.328 C186.608002,46.4880008 187.119997,46.568 187.664,46.568 C188.048002,46.568 188.491997,46.5000007 188.996,46.364 C189.500003,46.2279993 189.951998,46.0240014 190.352,45.752 C189.983998,45.944001 189.572002,46.1119993 189.116,46.256 C188.659998,46.4000007 188.248002,46.472 187.88,46.472 C187.303997,46.472 186.744003,46.4000007 186.2,46.256 C186.2,46.1439994 186.156,46.0400005 186.068,45.944 C185.98,45.8479995 185.880001,45.7560004 185.768,45.668 C185.655999,45.5799996 185.556,45.4880005 185.468,45.392 C185.38,45.2959995 185.336,45.1840006 185.336,45.056 C185.336,44.9279994 185.376,44.8320003 185.456,44.768 C185.536,44.7039997 185.627999,44.6560002 185.732,44.624 C185.836001,44.5919998 185.943999,44.5640001 186.056,44.54 C186.168001,44.5159999 186.264,44.4880002 186.344,44.456 Z M194.408,40.208 C193.943998,41.0400042 193.464002,41.8759958 192.968,42.716 C192.471998,43.5560042 191.848004,44.3519962 191.096,45.104 C191.864004,44.3839964 192.499997,43.6040042 193.004,42.764 C193.508003,41.9239958 193.975998,41.0720043 194.408,40.208 Z M192.608,34.184 L193.4,36.152 L193.544,36.008 L192.608,34.184 Z M193.88,35.816 C193.944,35.623999 194,35.432001 194.048,35.24 L194.192,34.664 L194.048,34.592 L193.784,35.528 C193.816,35.6560006 193.848,35.7519997 193.88,35.816 Z M191.168,34.952 C190.991999,34.5359979 190.788001,34.124002 190.556,33.716 C190.323999,33.307998 190.072001,32.904002 189.8,32.504 C190.040001,32.9680023 190.287999,33.4319977 190.544,33.896 C190.800001,34.3280022 191.039999,34.7679978 191.264,35.216 L191.168,34.952 Z M192.359896,33.7337437 L191.744,32.216 C191.76,32.4560012 191.796,32.6559992 191.852,32.816 C191.908,32.9760008 191.972,33.1159994 192.044,33.236 C192.116,33.3560006 192.188,33.4679995 192.26,33.572 C192.294201,33.621402 192.3275,33.6753164 192.359896,33.7337437 L192.359896,33.7337437 Z M193.592,36.104 L193.424,36.296 C193.456,36.3440002 193.488,36.3879998 193.52,36.428 C193.552,36.4680002 193.576,36.5199997 193.592,36.584 L193.712,36.392 L193.592,36.104 Z" id="butterfly" fill="#E6E6E6"></path>
            <g id="Arrow" transform="translate(30.000000, 16.000000) scale(1, -1) translate(-30.000000, -16.000000) " stroke="#E6E6E6" stroke-width="3" stroke-linecap="round">
                <path d="M0,31.8823001 C19.514983,12.0084532 34.2444391,4.52760684 60,0.882300079" id="Path"></path>
                <path d="M0.218177141,30.9952336 C1.14545143,28.663489 2.07272571,26.3317445 3,24" id="Path-2"></path>
                <path d="M0,32 C2.66666667,31 5.33333333,30 8,29" id="Path-2"></path>
            </g>
        </g>
    </g>
</svg>